<svg width="25" height="25" viewBox="0 0 25 25" fill="none" xmlns="http://www.w3.org/2000/svg">
<path d="M11.6048 1.79848C11.9727 1.0593 13.0273 1.05929 13.3952 1.79847L16.5048 8.04556C16.6018 8.24036 16.7596 8.39821 16.9544 8.49517L23.2015 11.6048C23.9407 11.9727 23.9407 13.0273 23.2015 13.3952L16.9544 16.5048C16.7596 16.6018 16.6018 16.7596 16.5048 16.9544L13.3952 23.2015C13.0273 23.9407 11.9727 23.9407 11.6048 23.2015L8.49517 16.9544C8.39821 16.7596 8.24036 16.6018 8.04556 16.5048L1.79848 13.3952C1.0593 13.0273 1.05929 11.9727 1.79847 11.6048L8.04556 8.49517C8.24036 8.39821 8.39821 8.24036 8.49517 8.04556L11.6048 1.79848Z" fill="#9FF233"/>
</svg>
