<svg width="392" height="103" viewBox="0 0 392 103" fill="none" xmlns="http://www.w3.org/2000/svg">
<path d="M4.10507 59.0624L362.952 4.30704C374.417 2.55759 385.13 10.4338 386.879 21.8991C388.628 33.3644 380.752 44.077 369.287 45.8265L30.2116 97.565C17.6544 99.4811 5.92145 90.8547 4.00538 78.2975L1.59192 62.4806C1.34981 60.8938 2.39823 59.408 3.95313 59.0895L4.10507 59.0624Z" fill="#9FF233"/>
<path d="M4.10507 59.0624L362.952 4.30704C374.417 2.55759 385.13 10.4338 386.879 21.8991C388.628 33.3644 380.752 44.077 369.287 45.8265L30.2116 97.565C17.6544 99.4811 5.92145 90.8547 4.00538 78.2975L1.59192 62.4806C1.34981 60.8938 2.39823 59.408 3.95313 59.0895L4.10507 59.0624Z" stroke="#9FF233" stroke-width="2"/>
<path d="M37.2306 85.6094C35.6489 85.8508 34.2118 85.714 32.9194 85.199C31.6269 84.6841 30.5587 83.8355 29.7147 82.6533C28.8841 81.4529 28.3373 79.9906 28.0742 78.2666C27.8112 76.5425 27.8982 74.9916 28.3354 73.6139C28.786 72.218 29.5513 71.0815 30.6314 70.2046C31.7115 69.3276 33.0424 68.7685 34.6241 68.5271C36.016 68.3148 37.2591 68.4002 38.3534 68.7835C39.4454 69.151 40.3022 69.781 40.9239 70.6734L39.0272 72.8808C38.014 71.7568 36.7166 71.3154 35.1349 71.5568C33.7905 71.7619 32.8415 72.3842 32.2879 73.4236C31.7478 74.4447 31.6165 75.8648 31.894 77.6837C32.1692 79.4868 32.718 80.8031 33.5405 81.6325C34.363 82.462 35.4307 82.7765 36.7435 82.5762C38.4043 82.3228 39.5348 81.511 40.1349 80.1408L42.6037 81.682C42.2764 82.7192 41.6476 83.584 40.7174 84.2762C39.7848 84.9526 38.6225 85.397 37.2306 85.6094ZM50.5847 83.5718C48.6234 83.871 47.0059 83.5595 45.7322 82.637C44.4743 81.7122 43.6981 80.2849 43.4036 78.3553C43.1092 76.4256 43.4244 74.8318 44.3492 73.5739C45.2899 72.3136 46.7409 71.5338 48.7022 71.2346C50.6635 70.9353 52.2731 71.2481 53.531 72.1729C54.8047 73.0953 55.5888 74.5214 55.8832 76.4511C56.1776 78.3807 55.8545 79.9757 54.9139 81.236C53.989 82.4939 52.546 83.2725 50.5847 83.5718ZM50.2046 81.0806C51.1061 80.943 51.7605 80.5114 52.1677 79.7857C52.5749 79.0599 52.6904 78.1198 52.5142 76.9651C52.338 75.8105 51.9474 74.9475 51.3423 74.3763C50.7372 73.805 49.9839 73.5882 49.0823 73.7257C48.1807 73.8633 47.5264 74.2949 47.1192 75.0207C46.712 75.7464 46.5965 76.6866 46.7727 77.8412C46.9488 78.9958 47.3395 79.8588 47.9446 80.4301C48.5497 81.0013 49.303 81.2182 50.2046 81.0806ZM57.2211 73.455C56.9773 71.8575 56.7828 70.7946 56.6375 70.2665L59.5794 69.8176C59.7478 70.3908 59.8923 71.0728 60.013 71.8636L60.0604 71.8564C60.1733 71.1108 60.5226 70.483 61.1083 69.9728C61.7099 69.4602 62.4693 69.1339 63.3867 68.9939C64.2408 68.8636 64.9962 68.9344 65.6527 69.2065C66.3227 69.4604 66.7984 69.8733 67.0799 70.4454C67.3045 69.7961 67.7067 69.2492 68.2862 68.8047C68.8792 68.3419 69.5632 68.0514 70.3383 67.9332C71.6511 67.7329 72.7522 68.0018 73.6418 68.7401C74.5289 69.4626 75.0859 70.5672 75.3128 72.054L76.4314 79.3851L73.0861 79.8956L72.029 72.9678C71.9132 72.2085 71.6566 71.6407 71.2593 71.2644C70.8595 70.8722 70.375 70.7195 69.8056 70.8064C69.1571 70.9054 68.6768 71.2052 68.3648 71.706C68.0661 72.1886 67.976 72.8174 68.0942 73.5924L69.1477 80.4965L65.8261 81.0033L64.7835 74.1704C64.6629 73.3796 64.4027 72.7881 64.0029 72.3959C63.6166 71.9855 63.1387 71.8237 62.5693 71.9106C61.9208 72.0095 61.4418 72.3173 61.1321 72.8339C60.8201 73.3347 60.7244 73.9805 60.8451 74.7714L61.8877 81.6043L58.5424 82.1147L57.2211 73.455ZM77.4744 70.3646C77.3899 69.811 77.2872 69.244 77.1663 68.6636C77.0612 68.0808 76.9614 67.5862 76.8671 67.1797L80.07 66.691C80.185 67.1267 80.2836 67.6134 80.3656 68.1511L80.4131 68.1439C80.7398 67.5276 81.182 67.0312 81.7396 66.6548C82.2948 66.2625 82.9599 66.0073 83.7349 65.889C85.2376 65.6597 86.5083 66.0323 87.5472 67.0068C88.586 67.9812 89.2515 69.4254 89.5435 71.3392C89.838 73.2689 89.6256 74.847 88.9064 76.0735C88.2005 77.2818 87.0726 78.0042 85.5225 78.2407C84.795 78.3517 84.1205 78.3333 83.499 78.1853C82.8934 78.0349 82.4169 77.7758 82.0694 77.408L81.9983 77.4189L83.0409 84.2518L79.6719 84.7659L77.4744 70.3646ZM84.3595 75.869C85.1345 75.7507 85.6715 75.3451 85.9704 74.6521C86.2826 73.9409 86.3459 72.9763 86.16 71.7584C85.8004 69.4017 84.8456 68.3416 83.2955 68.5781C82.5205 68.6963 81.9295 69.0131 81.5226 69.5284C81.1157 70.0437 80.9665 70.6572 81.0751 71.3689L81.4625 73.9076C81.5614 74.556 81.8911 75.0722 82.4514 75.4561C83.0275 75.8376 83.6635 75.9752 84.3595 75.869ZM96.3719 76.5852C95.0116 76.7928 93.9136 76.491 93.0776 75.6798C92.2417 74.8686 91.6862 73.5614 91.411 71.7583L90.3974 65.1152L93.7664 64.6011L94.7837 71.268C94.9285 72.217 95.1837 72.8821 95.5494 73.2633C95.9151 73.6445 96.4222 73.7856 97.0707 73.6867C97.8457 73.5684 98.4325 73.1713 98.8311 72.4955C99.2456 71.8172 99.3852 71.0352 99.2501 70.1495L98.2979 63.9097L101.667 63.3956L102.992 72.0791C103.122 72.9332 103.347 73.9833 103.667 75.2293L100.44 75.7217C100.183 74.8869 100.015 74.2085 99.9354 73.6865L99.888 73.6938C99.7253 74.4308 99.3206 75.0671 98.674 75.6027C98.0408 76.1202 97.2735 76.4477 96.3719 76.5852ZM111.092 74.3391C109.811 74.5346 108.764 74.3545 107.951 73.7988C107.154 73.2406 106.663 72.3605 106.48 71.1584L105.593 65.3457L103.434 65.6752L103.054 63.184L105.213 62.8546L104.753 59.8414L107.882 58.3928L107.977 58.3784L108.582 62.3405L112.046 61.8119L112.426 64.3031L108.962 64.8317L109.769 70.1224C109.866 70.7551 110.095 71.1976 110.457 71.4498C110.817 71.6863 111.329 71.7538 111.993 71.6524C112.626 71.5559 113.196 71.3638 113.702 71.0761L114.192 73.332C113.454 73.8007 112.421 74.1363 111.092 74.3391ZM126.463 66.9439L118.301 68.1893C118.552 68.8793 118.926 69.3645 119.422 69.6449C119.934 69.9229 120.577 70.0028 121.352 69.8845C122.032 69.7807 122.608 69.5795 123.081 69.2809C123.553 68.9822 124.001 68.5253 124.425 67.9103L126.489 69.3434C126.149 70.1885 125.524 70.923 124.616 71.5472C123.724 72.1689 122.708 72.5667 121.569 72.7404C119.703 73.0252 118.158 72.7107 116.934 71.7968C115.708 70.8672 114.949 69.4454 114.657 67.5316C114.362 65.6019 114.66 64.0026 115.551 62.7337C116.442 61.4648 117.813 60.6892 119.663 60.4068C121.435 60.1365 122.903 60.4789 124.069 61.4341C125.247 62.371 125.984 63.8043 126.278 65.7339L126.463 66.9439ZM122.776 65.0545C122.67 64.3586 122.373 63.8455 121.885 63.5152C121.396 63.1691 120.779 63.0528 120.036 63.1662C119.371 63.2676 118.858 63.5644 118.496 64.0566C118.132 64.533 117.937 65.1617 117.91 65.9426L122.798 65.1969L122.776 65.0545ZM127.705 62.3845C127.5 61.04 127.329 60.0788 127.192 59.5008L130.395 59.0121C130.552 59.6193 130.69 60.3104 130.808 61.0855L130.845 61.3227L130.939 61.3082C131.122 60.4873 131.565 59.7884 132.27 59.2115C132.989 58.6163 133.854 58.2415 134.866 58.087C135.072 58.0556 135.321 58.0419 135.613 58.046L136.015 60.6795C135.981 60.6685 135.821 60.6847 135.537 60.7282C134.73 60.8512 134.01 61.1715 133.377 61.6889C132.744 62.2064 132.273 62.8365 131.966 63.5794C131.658 64.3223 131.565 65.0891 131.686 65.88L132.442 70.8386L129.073 71.3527L127.705 62.3845ZM142.14 52.3644L153.504 50.6303L153.968 53.6672L146.423 54.8184L146.933 58.1637L153.671 57.1356L154.135 60.1724L147.397 61.2005L148.03 65.3525L155.575 64.2013L156.038 67.2381L144.674 68.9722L142.14 52.3644ZM156.544 58.2753C156.329 56.8676 156.136 55.8127 155.964 55.1106L159.119 54.6291C159.325 55.3422 159.478 56.023 159.577 56.6715L159.624 56.6643C159.789 55.9431 160.195 55.3147 160.842 54.779C161.504 54.241 162.278 53.9044 163.164 53.7692C164.524 53.5616 165.622 53.8635 166.458 54.6746C167.294 55.4858 167.85 56.793 168.125 58.5961L169.138 65.2392L165.769 65.7533L164.752 59.0865C164.607 58.1375 164.352 57.4723 163.986 57.0911C163.621 56.7099 163.106 56.57 162.441 56.6714C161.651 56.7921 161.051 57.1587 160.643 57.7713C160.248 58.3656 160.117 59.0978 160.249 59.9677L161.238 66.4448L157.869 66.9588L156.544 58.2753ZM180.742 51.3298L182.476 62.6943C182.785 64.7189 182.503 66.3236 181.632 67.5086C180.779 68.707 179.348 69.4594 177.34 69.7659C176.375 69.9132 175.455 69.9321 174.581 69.8228C173.709 69.7292 172.924 69.5172 172.226 69.1867L172.997 66.7626C173.594 66.9629 174.23 67.1005 174.905 67.1755C175.596 67.2482 176.218 67.2422 176.772 67.1578C177.784 67.0033 178.485 66.5565 178.874 65.8174C179.265 65.0941 179.359 64.0681 179.157 62.7395L179.131 62.5734C178.583 63.434 177.597 63.9729 176.173 64.1901C174.497 64.4459 173.12 64.1219 172.043 63.2179C170.98 62.2958 170.299 60.854 170 58.8927C169.705 56.9631 169.913 55.4099 170.624 54.2332C171.334 53.0566 172.481 52.3476 174.062 52.1062C175.691 51.8576 176.962 52.2302 177.875 53.224L177.922 53.2167L177.918 51.7606L180.742 51.3298ZM178.169 57.0635C178.019 56.0828 177.71 55.3775 177.239 54.9475C176.767 54.5017 176.143 54.338 175.368 54.4562C174.529 54.5841 173.936 54.9903 173.587 55.6747C173.252 56.3409 173.175 57.2672 173.356 58.4535C173.708 60.7627 174.73 61.7882 176.423 61.53C177.198 61.4117 177.748 61.0931 178.074 60.5741C178.415 60.0526 178.519 59.3569 178.386 58.487L178.169 57.0635ZM184.947 49.5227C184.315 49.6193 183.774 49.5237 183.326 49.2361C182.893 48.9461 182.632 48.5084 182.543 47.9232C182.453 47.338 182.572 46.8424 182.898 46.4365C183.241 46.0282 183.728 45.7758 184.361 45.6792C184.994 45.5827 185.526 45.6795 185.959 45.9695C186.408 46.2571 186.676 46.6936 186.766 47.2788C186.855 47.864 186.729 48.3608 186.386 48.7691C186.06 49.175 185.58 49.4262 184.947 49.5227ZM183.437 50.9186L186.806 50.4045L188.616 62.2672L185.247 62.7813L183.437 50.9186ZM189.977 53.1738C189.762 51.7661 189.569 50.7112 189.397 50.0091L192.553 49.5276C192.759 50.2407 192.911 50.9215 193.01 51.57L193.057 51.5628C193.222 50.8416 193.628 50.2132 194.275 49.6775C194.937 49.1395 195.711 48.8029 196.597 48.6677C197.957 48.4601 199.056 48.762 199.891 49.5732C200.727 50.3843 201.283 51.6915 201.558 53.4946L202.572 60.1377L199.203 60.6518L198.185 53.985C198.041 53.036 197.785 52.3708 197.42 51.9896C197.054 51.6084 196.539 51.4685 195.875 51.5699C195.084 51.6906 194.484 52.0572 194.076 52.6698C193.681 53.2642 193.55 53.9963 193.683 54.8662L194.671 61.3433L191.302 61.8573L189.977 53.1738ZM215.387 53.3753L207.225 54.6207C207.476 55.3107 207.85 55.7959 208.346 56.0763C208.858 56.3543 209.501 56.4341 210.276 56.3159C210.956 56.2121 211.532 56.0109 212.005 55.7122C212.477 55.4136 212.925 54.9567 213.349 54.3417L215.413 55.7748C215.073 56.6198 214.448 57.3544 213.54 57.9785C212.648 58.6003 211.632 58.998 210.493 59.1718C208.627 59.4566 207.082 59.142 205.858 58.2282C204.632 57.2985 203.872 55.8768 203.58 53.9629C203.286 52.0333 203.584 50.434 204.475 49.1651C205.366 47.8962 206.736 47.1206 208.587 46.8382C210.359 46.5679 211.827 46.9103 212.992 47.8655C214.171 48.8024 214.908 50.2356 215.202 52.1653L215.387 53.3753ZM211.7 51.4859C211.594 50.7899 211.297 50.2768 210.809 49.9466C210.32 49.6005 209.703 49.4842 208.96 49.5976C208.295 49.699 207.782 49.9958 207.42 50.488C207.056 50.9644 206.861 51.593 206.834 52.374L211.721 51.6282L211.7 51.4859ZM228.431 51.3849L220.27 52.6303C220.521 53.3203 220.894 53.8055 221.39 54.0859C221.902 54.3639 222.545 54.4438 223.32 54.3255C224 54.2217 224.577 54.0205 225.049 53.7218C225.521 53.4232 225.97 52.9663 226.394 52.3513L228.457 53.7844C228.117 54.6294 227.493 55.364 226.584 55.9881C225.692 56.6099 224.676 57.0076 223.538 57.1814C221.671 57.4662 220.126 57.1517 218.902 56.2378C217.676 55.3081 216.917 53.8864 216.625 51.9725C216.33 50.0429 216.629 48.4436 217.519 47.1747C218.41 45.9058 219.781 45.1302 221.631 44.8478C223.403 44.5775 224.871 44.9199 226.037 45.8751C227.216 46.812 227.952 48.2452 228.247 50.1749L228.431 51.3849ZM224.744 49.4955C224.638 48.7995 224.341 48.2864 223.854 47.9562C223.364 47.6101 222.747 47.4938 222.004 47.6072C221.34 47.7086 220.826 48.0054 220.465 48.4976C220.1 48.974 219.905 49.6026 219.878 50.3836L224.766 49.6378L224.744 49.4955ZM229.673 46.8254C229.468 45.481 229.297 44.5198 229.16 43.9418L232.363 43.4531C232.52 44.0603 232.658 44.7514 232.777 45.5264L232.813 45.7637L232.908 45.7492C233.09 44.9283 233.534 44.2294 234.239 43.6524C234.957 43.0573 235.822 42.6824 236.835 42.528C237.04 42.4966 237.289 42.4829 237.581 42.4869L237.983 45.1204C237.949 45.1095 237.789 45.1257 237.505 45.1691C236.698 45.2922 235.978 45.6125 235.345 46.1299C234.712 46.6473 234.241 47.2775 233.934 48.0204C233.627 48.7632 233.533 49.5301 233.654 50.321L234.41 55.2796L231.041 55.7936L229.673 46.8254ZM241.017 40.9672C240.385 41.0638 239.844 40.9682 239.395 40.6806C238.963 40.3905 238.702 39.9529 238.612 39.3677C238.523 38.7824 238.642 38.2869 238.968 37.881C239.311 37.4727 239.798 37.2203 240.431 37.1237C241.063 37.0272 241.596 37.1239 242.029 37.414C242.477 37.7016 242.746 38.138 242.836 38.7233C242.925 39.3085 242.798 39.8053 242.456 40.2136C242.129 40.6195 241.65 40.8707 241.017 40.9672ZM239.506 42.3631L242.875 41.849L244.686 53.7117L241.317 54.2258L239.506 42.3631ZM246.047 44.6183C245.832 43.2106 245.639 42.1557 245.467 41.4536L248.622 40.9721C248.828 41.6852 248.981 42.366 249.08 43.0145L249.127 43.0073C249.292 42.2861 249.698 41.6577 250.345 41.122C251.007 40.584 251.781 40.2473 252.667 40.1122C254.027 39.9046 255.125 40.2064 255.961 41.0176C256.797 41.8288 257.353 43.136 257.628 44.9391L258.641 51.5822L255.272 52.0963L254.255 45.4295C254.11 44.4804 253.855 43.8153 253.489 43.4341C253.124 43.0529 252.609 42.913 251.944 43.0144C251.154 43.135 250.554 43.5017 250.146 44.1143C249.751 44.7086 249.62 45.4408 249.753 46.3107L250.741 52.7877L247.372 53.3018L246.047 44.6183ZM270.245 37.6728L271.979 49.0373C272.288 51.0618 272.007 52.6666 271.135 53.8516C270.282 55.05 268.852 55.8024 266.843 56.1089C265.878 56.2561 264.958 56.2751 264.084 56.1657C263.212 56.0722 262.427 55.8602 261.729 55.5297L262.5 53.1056C263.097 53.3059 263.733 53.4435 264.408 53.5185C265.099 53.5911 265.721 53.5852 266.275 53.5007C267.287 53.3463 267.988 52.8995 268.377 52.1604C268.768 51.4371 268.862 50.4111 268.66 49.0825L268.634 48.9164C268.086 49.777 267.1 50.3159 265.676 50.5331C264 50.7889 262.623 50.4648 261.546 49.5609C260.483 48.6387 259.802 47.197 259.503 45.2357C259.208 43.306 259.416 41.7529 260.127 40.5762C260.838 39.3996 261.984 38.6906 263.565 38.4492C265.195 38.2006 266.465 38.5732 267.378 39.567L267.425 39.5597L267.421 38.1036L270.245 37.6728ZM267.672 43.4065C267.523 42.4258 267.213 41.7205 266.742 41.2905C266.27 40.8447 265.646 40.6809 264.871 40.7992C264.033 40.9271 263.439 41.3333 263.09 42.0177C262.755 42.6839 262.678 43.6102 262.859 44.7964C263.211 47.1057 264.234 48.1312 265.926 47.873C266.701 47.7547 267.251 47.4361 267.577 46.9171C267.918 46.3956 268.022 45.6999 267.889 44.83L267.672 43.4065ZM285.189 47.7742C283.892 47.9721 282.682 47.8897 281.558 47.527C280.45 47.162 279.496 46.5307 278.696 45.6331L280.584 43.2086C281.2 43.7459 281.902 44.1567 282.69 44.4411C283.493 44.7231 284.212 44.8158 284.844 44.7192C285.509 44.6179 286.017 44.3947 286.369 44.0496C286.721 43.7046 286.862 43.3027 286.792 42.844C286.736 42.4802 286.629 42.2052 286.471 42.0189C286.329 41.8302 286.052 41.654 285.638 41.4905C285.238 41.3088 284.552 41.0573 283.581 40.7362C282.287 40.3186 281.262 39.9086 280.504 39.5062C279.747 39.1039 279.148 38.6287 278.709 38.0808C278.282 37.5146 278.005 36.8124 277.877 35.9741C277.745 35.1041 277.864 34.2929 278.234 33.5404C278.605 32.7878 279.19 32.1645 279.988 31.6704C280.8 31.1581 281.768 30.8162 282.891 30.6449C284.14 30.4542 285.267 30.517 286.27 30.8333C287.289 31.1472 288.083 31.6816 288.651 32.4365L286.53 34.6053C285.615 33.8061 284.62 33.4886 283.544 33.6527C282.88 33.7541 282.385 33.9591 282.06 34.2677C281.748 34.558 281.626 34.9246 281.694 35.3675C281.737 35.6522 281.88 35.8975 282.121 36.1034C282.363 36.3092 282.76 36.5238 283.312 36.7471C283.878 36.9522 284.71 37.2135 285.811 37.5312C286.877 37.8378 287.732 38.1849 288.373 38.5726C289.013 38.9444 289.497 39.4127 289.826 39.9775C290.168 40.5241 290.403 41.2166 290.531 42.0549C290.679 43.0197 290.555 43.9046 290.16 44.7094C289.778 45.4959 289.158 46.1569 288.301 46.6923C287.444 47.2277 286.407 47.5884 285.189 47.7742ZM298.324 45.77C297.043 45.9655 295.995 45.7854 295.182 45.2297C294.385 44.6716 293.895 43.7915 293.711 42.5894L292.824 36.7766L290.665 37.1061L290.285 34.6149L292.444 34.2855L291.984 31.2724L295.114 29.8238L295.209 29.8093L295.813 33.7714L299.277 33.2429L299.657 35.734L296.193 36.2626L297.001 41.5533C297.097 42.186 297.326 42.6285 297.689 42.8807C298.048 43.1172 298.56 43.1847 299.225 43.0833C299.857 42.9868 300.427 42.7947 300.933 42.507L301.423 44.7629C300.686 45.2316 299.652 45.5673 298.324 45.77ZM307.282 44.403C305.922 44.6106 304.824 44.3088 303.988 43.4976C303.152 42.6864 302.597 41.3792 302.321 39.5761L301.308 32.933L304.677 32.4189L305.694 39.0858C305.839 40.0348 306.094 40.6999 306.46 41.0811C306.825 41.4623 307.333 41.6034 307.981 41.5045C308.756 41.3862 309.343 40.9892 309.742 40.3133C310.156 39.635 310.296 38.853 310.16 37.9673L309.208 31.7275L312.577 31.2134L313.902 39.8969C314.033 40.751 314.258 41.8011 314.577 43.0471L311.351 43.5395C311.094 42.7047 310.925 42.0263 310.846 41.5043L310.798 41.5116C310.636 42.2486 310.231 42.8849 309.584 43.4205C308.951 43.938 308.184 44.2655 307.282 44.403ZM321.101 42.2944C319.535 42.5334 318.224 42.1589 317.167 41.1711C316.11 40.1832 315.429 38.6928 315.125 36.6999C314.942 35.4978 314.987 34.4146 315.26 33.4503C315.534 32.486 316.013 31.7007 316.697 31.0946C317.398 30.486 318.262 30.1033 319.29 29.9464C319.986 29.8402 320.596 29.8604 321.12 30.007C321.658 30.1354 322.159 30.3988 322.624 30.7971L322.672 30.7899L321.629 23.957L324.998 23.4429L327.196 37.8442C327.456 39.5525 327.643 40.6165 327.756 41.0363L324.576 41.5214C324.524 41.2866 324.442 40.7974 324.328 40.0541L324.281 40.0613C323.994 40.6229 323.559 41.1102 322.974 41.5231C322.406 41.9335 321.781 42.1907 321.101 42.2944ZM321.398 39.6271C322.173 39.5089 322.758 39.2012 323.151 38.7042C323.558 38.1889 323.706 37.5675 323.595 36.8399L323.208 34.3013C323.109 33.6528 322.779 33.1366 322.219 32.7527C321.658 32.3688 321.014 32.2324 320.287 32.3434C319.512 32.4617 318.972 32.8515 318.669 33.5129C318.365 34.1743 318.301 35.0823 318.477 36.2369C318.663 37.4548 319.003 38.3578 319.498 38.946C319.99 39.5183 320.623 39.7454 321.398 39.6271ZM340.455 34.2915L332.293 35.5369C332.544 36.2269 332.918 36.7121 333.414 36.9925C333.926 37.2705 334.569 37.3504 335.344 37.2321C336.024 37.1283 336.6 36.9271 337.073 36.6285C337.545 36.3298 337.993 35.873 338.417 35.2579L340.481 36.691C340.141 37.5361 339.516 38.2706 338.608 38.8948C337.716 39.5165 336.7 39.9143 335.561 40.088C333.695 40.3728 332.15 40.0583 330.926 39.1444C329.7 38.2148 328.941 36.793 328.648 34.8792C328.354 32.9495 328.652 31.3502 329.543 30.0813C330.434 28.8125 331.804 28.0368 333.655 27.7544C335.427 27.4841 336.895 27.8266 338.06 28.7817C339.239 29.7186 339.976 31.1519 340.27 33.0815L340.455 34.2915ZM336.768 32.4021C336.662 31.7062 336.365 31.1931 335.877 30.8628C335.388 30.5167 334.771 30.4004 334.028 30.5138C333.363 30.6152 332.85 30.912 332.488 31.4042C332.124 31.8806 331.929 32.5093 331.902 33.2902L336.789 32.5445L336.768 32.4021ZM341.574 30.0421C341.359 28.6344 341.166 27.5795 340.994 26.8774L344.15 26.3959C344.355 27.109 344.508 27.7898 344.607 28.4383L344.654 28.4311C344.819 27.7099 345.225 27.0815 345.872 26.5458C346.534 26.0077 347.308 25.6711 348.194 25.536C349.554 25.3284 350.652 25.6302 351.488 26.4414C352.324 27.2526 352.88 28.5598 353.155 30.3629L354.169 37.006L350.8 37.5201L349.782 30.8532C349.638 29.9042 349.382 29.2391 349.017 28.8579C348.651 28.4767 348.136 28.3368 347.472 28.4382C346.681 28.5588 346.081 28.9255 345.673 29.5381C345.278 30.1324 345.147 30.8646 345.28 31.7345L346.268 38.2115L342.899 38.7256L341.574 30.0421ZM361.9 36.069C360.619 36.2645 359.572 36.0844 358.759 35.5287C357.962 34.9706 357.471 34.0905 357.288 32.8884L356.401 27.0757L354.242 27.4051L353.862 24.9139L356.021 24.5845L355.561 21.5714L358.69 20.1228L358.785 20.1083L359.39 24.0704L362.854 23.5419L363.234 26.0331L359.77 26.5616L360.577 31.8524C360.674 32.485 360.903 32.9275 361.265 33.1798C361.625 33.4162 362.137 33.4837 362.801 33.3824C363.434 33.2858 364.004 33.0937 364.51 32.806L365 35.062C364.262 35.5306 363.229 35.8663 361.9 36.069Z" fill="#9747FF"/>
<path d="M278.919 50.9159L366.022 37.6251L366.203 38.8114L279.1 52.1022L278.919 50.9159Z" fill="#9747FF"/>
</svg>
