<svg width="63" height="30" viewBox="0 0 63 30" fill="none" xmlns="http://www.w3.org/2000/svg">
<path d="M8.17664 27.7944C7.28801 28.0798 6.44767 28.134 5.65563 27.957C4.86359 27.7801 4.16981 27.3902 3.57431 26.7874C2.98484 26.1729 2.53457 25.3813 2.2235 24.4127C1.91243 23.4441 1.81904 22.5428 1.94333 21.7089C2.07365 20.8632 2.40927 20.1378 2.95017 19.5328C3.49107 18.9278 4.20584 18.4825 5.09447 18.1972C5.87647 17.946 6.60034 17.8802 7.2661 17.9997C7.929 18.1103 8.48079 18.3938 8.92147 18.8503L8.03334 20.2971C7.34579 19.7435 6.5577 19.6094 5.66907 19.8948C4.91374 20.1373 4.42476 20.5836 4.20214 21.2334C3.98555 21.8715 4.04135 22.7016 4.36955 23.7235C4.69489 24.7365 5.1328 25.4438 5.68329 25.8454C6.23378 26.247 6.87781 26.3294 7.61537 26.0925C8.54843 25.7928 9.1244 25.2206 9.34326 24.3759L10.9078 25.0351C10.8152 25.6628 10.5331 26.219 10.0615 26.7038C9.58691 27.1797 8.95864 27.5432 8.17664 27.7944ZM9.58745 16.9013L11.7335 16.2121L14.1821 23.8365L18.5408 22.4367L19.0888 24.1429L12.584 26.2319L9.58745 16.9013ZM17.4827 14.3657L19.6287 13.6765L22.6253 23.0071L20.4792 23.6963L17.4827 14.3657ZM28.6264 21.2269C27.7378 21.5123 26.8975 21.5665 26.1054 21.3895C25.3134 21.2126 24.6196 20.8227 24.0241 20.2199C23.4346 19.6054 22.9844 18.8138 22.6733 17.8452C22.3622 16.8766 22.2688 15.9753 22.3931 15.1414C22.5235 14.2957 22.8591 13.5703 23.4 12.9653C23.9409 12.3603 24.6556 11.915 25.5443 11.6297C26.3263 11.3785 27.0502 11.3127 27.7159 11.4322C28.3788 11.5428 28.9306 11.8263 29.3713 12.2828L28.4831 13.7296C27.7956 13.176 27.0075 13.0419 26.1189 13.3273C25.3635 13.5698 24.8746 14.0161 24.6519 14.6659C24.4354 15.304 24.4912 16.1341 24.8194 17.156C25.1447 18.169 25.5826 18.8763 26.1331 19.2779C26.6836 19.6795 27.3276 19.7619 28.0652 19.525C28.9982 19.2253 29.5742 18.6531 29.7931 17.8084L31.3576 18.4676C31.2651 19.0953 30.983 19.6515 30.5113 20.1363C30.0367 20.6122 29.4084 20.9757 28.6264 21.2269ZM38.6055 17.875L35.011 14.6034L34.3365 16.3493L35.1799 18.9752L33.0338 19.6644L30.0373 10.3338L32.1833 9.64456L33.4504 13.5901L35.0358 8.72847L37.5551 7.9194L35.8455 12.3945L40.9915 17.1088L38.6055 17.875ZM51.3287 3.49597L54.3252 12.8266L52.2059 13.5072L50.622 8.57534L50.4597 14.068L48.9401 14.556L45.6101 10.1849L47.194 15.1168L45.0746 15.7975L42.078 6.46684L44.2907 5.75623L48.9593 12.006L49.116 4.20658L51.3287 3.49597ZM53.0384 2.94689L59.4232 0.896396L59.9712 2.60257L55.7324 3.96386L56.336 5.84332L60.1216 4.62757L60.6695 6.33374L56.8839 7.54949L57.6331 9.88215L61.8718 8.52085L62.4198 10.227L56.035 12.2775L53.0384 2.94689Z" fill="white"/>
</svg>
