<svg width="390" height="50" viewBox="0 0 390 50" fill="none" xmlns="http://www.w3.org/2000/svg">
<path d="M0 25C0 11.1929 11.1929 0 25 0L381.523 0C385.942 0 389.523 3.58172 389.523 8V26C389.523 39.2548 378.778 50 365.523 50L25 50C11.1929 50 0 38.8071 0 25V25Z" fill="#FFFFA0"/>
<path d="M40.35 19.6674L40.1741 30.3326M40.1741 30.3326L34.9294 24.9121M40.1741 30.3326L45.5946 25.088M53.5936 25.2199C53.4721 32.5827 47.405 38.453 40.0422 38.3315C32.6794 38.2101 26.8091 32.1429 26.9305 24.7801C27.0519 17.4173 33.1191 11.5471 40.4819 11.6685C47.8447 11.7899 53.715 17.8571 53.5936 25.2199Z" stroke="#8633F2" stroke-width="3" stroke-linecap="round" stroke-linejoin="round"/>
<path d="M68.1554 18.2H74.1554C78.7474 18.2 81.0434 20.896 81.0434 26.288C81.0434 28.368 80.7874 30.048 80.2754 31.328C79.7634 32.592 78.9554 33.52 77.8514 34.112C76.7634 34.704 75.3154 35 73.5074 35H68.1554V18.2ZM73.8674 32.24C74.7794 32.24 75.5074 32.04 76.0514 31.64C76.5954 31.24 76.9874 30.608 77.2274 29.744C77.4834 28.88 77.6114 27.728 77.6114 26.288C77.6114 24.384 77.3394 23.024 76.7954 22.208C76.2514 21.376 75.3474 20.96 74.0834 20.96H71.6114V32.24H73.8674ZM88.8579 35.24C86.9219 35.24 85.4099 34.688 84.3219 33.584C83.2339 32.48 82.6899 30.952 82.6899 29C82.6899 27.048 83.2339 25.52 84.3219 24.416C85.4099 23.312 86.9219 22.76 88.8579 22.76C90.7939 22.76 92.3059 23.312 93.3939 24.416C94.4979 25.52 95.0499 27.048 95.0499 29C95.0499 30.952 94.4979 32.48 93.3939 33.584C92.3059 34.688 90.7939 35.24 88.8579 35.24ZM88.8579 32.96C89.8339 32.96 90.6019 32.608 91.1619 31.904C91.7219 31.2 92.0019 30.232 92.0019 29C92.0019 27.768 91.7219 26.8 91.1619 26.096C90.6019 25.392 89.8339 25.04 88.8579 25.04C87.8819 25.04 87.1139 25.392 86.5539 26.096C86.0099 26.8 85.7379 27.768 85.7379 29C85.7379 30.232 86.0099 31.2 86.5539 31.904C87.1139 32.608 87.8819 32.96 88.8579 32.96ZM112.476 23L109.404 35H106.716L104.316 26.312L101.916 35H99.2043L96.1323 23L99.3243 23L100.836 30.464L102.948 23H105.66L107.772 30.464L109.284 23H112.476ZM113.917 26.168C113.917 24.712 113.885 23.656 113.821 23H116.701C116.781 23.672 116.821 24.368 116.821 25.088H116.893C117.181 24.384 117.685 23.824 118.405 23.408C119.141 22.976 119.957 22.76 120.853 22.76C122.229 22.76 123.269 23.224 123.973 24.152C124.677 25.08 125.029 26.448 125.029 28.256V35H121.981V28.232C121.981 27.192 121.813 26.432 121.477 25.952C121.141 25.472 120.605 25.232 119.869 25.232C119.021 25.232 118.325 25.536 117.781 26.144C117.253 26.736 116.989 27.504 116.989 28.448V35H113.917V26.168ZM130.825 35.24C129.801 35.24 129.017 34.968 128.473 34.424C127.945 33.864 127.681 33.064 127.681 32.024V17.192H130.729V32.072C130.729 32.424 130.817 32.688 130.993 32.864C131.185 33.024 131.465 33.104 131.833 33.104C132.201 33.104 132.657 33 133.201 32.792L133.657 34.424C132.937 34.968 131.993 35.24 130.825 35.24ZM139.741 35.24C137.805 35.24 136.293 34.688 135.205 33.584C134.117 32.48 133.573 30.952 133.573 29C133.573 27.048 134.117 25.52 135.205 24.416C136.293 23.312 137.805 22.76 139.741 22.76C141.677 22.76 143.189 23.312 144.277 24.416C145.381 25.52 145.933 27.048 145.933 29C145.933 30.952 145.381 32.48 144.277 33.584C143.189 34.688 141.677 35.24 139.741 35.24ZM139.741 32.96C140.717 32.96 141.485 32.608 142.045 31.904C142.605 31.2 142.885 30.232 142.885 29C142.885 27.768 142.605 26.8 142.045 26.096C141.485 25.392 140.717 25.04 139.741 25.04C138.765 25.04 137.997 25.392 137.437 26.096C136.893 26.8 136.621 27.768 136.621 29C136.621 30.232 136.893 31.2 137.437 31.904C137.997 32.608 138.765 32.96 139.741 32.96ZM151.527 35.24C150.743 35.24 150.039 35.08 149.415 34.76C148.791 34.424 148.303 33.968 147.951 33.392C147.599 32.8 147.423 32.144 147.423 31.424C147.423 30.192 147.911 29.248 148.887 28.592C149.863 27.936 151.255 27.608 153.063 27.608H154.935V27.104C154.935 26.464 154.743 25.976 154.359 25.64C153.991 25.288 153.463 25.112 152.775 25.112C152.055 25.112 151.367 25.24 150.711 25.496C150.055 25.752 149.519 26.104 149.103 26.552L147.759 24.776C148.415 24.152 149.191 23.664 150.087 23.312C150.983 22.944 151.911 22.76 152.871 22.76C154.471 22.76 155.727 23.136 156.639 23.888C157.551 24.64 158.007 25.68 158.007 27.008V32.48C158.007 32.848 158.031 33.28 158.079 33.776C158.143 34.272 158.215 34.68 158.295 35H155.583C155.487 34.792 155.415 34.592 155.367 34.4C155.319 34.192 155.279 33.912 155.247 33.56H155.199C154.287 34.68 153.063 35.24 151.527 35.24ZM152.271 32.936C153.039 32.936 153.671 32.744 154.167 32.36C154.679 31.96 154.935 31.456 154.935 30.848V29.648H152.967C152.151 29.648 151.519 29.8 151.071 30.104C150.639 30.408 150.423 30.848 150.423 31.424C150.423 31.904 150.583 32.28 150.903 32.552C151.239 32.808 151.695 32.936 152.271 32.936ZM165.118 35.24C163.55 35.24 162.31 34.672 161.398 33.536C160.502 32.384 160.054 30.808 160.054 28.808C160.054 27.592 160.262 26.528 160.678 25.616C161.094 24.704 161.686 24 162.454 23.504C163.238 23.008 164.15 22.76 165.19 22.76C165.894 22.76 166.51 22.88 167.038 23.12C167.582 23.36 168.054 23.728 168.454 24.224H168.502V17.192H171.55V31.808C171.55 33.472 171.574 34.536 171.622 35H168.742C168.726 34.728 168.718 34.2 168.718 33.416H168.67C168.302 33.96 167.79 34.4 167.134 34.736C166.494 35.072 165.822 35.24 165.118 35.24ZM165.718 32.888C166.566 32.888 167.238 32.648 167.734 32.168C168.246 31.672 168.502 31.024 168.502 30.224V27.752C168.502 26.968 168.238 26.32 167.71 25.808C167.182 25.296 166.518 25.04 165.718 25.04C164.87 25.04 164.222 25.368 163.774 26.024C163.326 26.68 163.102 27.624 163.102 28.856C163.102 30.152 163.326 31.152 163.774 31.856C164.222 32.544 164.87 32.888 165.718 32.888ZM179.543 26.192C179.543 24.592 179.511 23.528 179.447 23H182.135C182.215 23.64 182.255 24.336 182.255 25.088H182.303C182.559 24.368 183.023 23.8 183.695 23.384C184.367 22.968 185.151 22.76 186.047 22.76C186.911 22.76 187.647 22.952 188.255 23.336C188.863 23.704 189.271 24.216 189.479 24.872C189.799 24.216 190.287 23.704 190.943 23.336C191.599 22.952 192.335 22.76 193.151 22.76C194.479 22.76 195.519 23.192 196.271 24.056C197.039 24.904 197.423 26.08 197.423 27.584V35H194.375V27.92C194.375 27.072 194.191 26.416 193.823 25.952C193.455 25.472 192.951 25.232 192.311 25.232C191.607 25.232 191.039 25.48 190.607 25.976C190.191 26.456 189.983 27.112 189.983 27.944V35H186.959V28.016C186.959 27.136 186.783 26.456 186.431 25.976C186.079 25.48 185.583 25.232 184.943 25.232C184.255 25.232 183.687 25.496 183.239 26.024C182.807 26.536 182.591 27.2 182.591 28.016V35H179.543V26.192ZM210.496 23L205.912 35.552C205.416 36.896 204.728 37.904 203.848 38.576C202.984 39.264 201.944 39.608 200.728 39.608C200.088 39.608 199.432 39.52 198.76 39.344V36.92C198.952 36.984 199.192 37.04 199.479 37.088C199.768 37.136 200.024 37.16 200.248 37.16C200.952 37.16 201.552 36.912 202.048 36.416C202.56 35.936 203.016 35.168 203.416 34.112L198.952 23H202.215L204.855 30.68L207.232 23H210.496ZM218.038 18.2H223.966C225.87 18.2 227.294 18.592 228.238 19.376C229.182 20.144 229.654 21.312 229.654 22.88C229.654 23.984 229.422 24.928 228.958 25.712C228.494 26.496 227.822 27.064 226.942 27.416V27.464C227.246 27.688 227.478 27.904 227.638 28.112C227.814 28.304 227.958 28.528 228.07 28.784L230.542 35H226.87L224.95 29.888C224.758 29.376 224.51 29.04 224.206 28.88C223.902 28.704 223.374 28.616 222.622 28.616H221.494V35H218.038V18.2ZM223.606 25.88C224.486 25.88 225.15 25.664 225.598 25.232C226.062 24.784 226.294 24.136 226.294 23.288C226.294 21.736 225.382 20.96 223.558 20.96H221.494V25.88H223.606ZM232.335 18.2H243.495V20.96H235.791V24.8H242.655V27.56H235.791V32.24H243.495V35H232.335V18.2ZM250.99 35.24C249.726 35.24 248.582 34.984 247.558 34.472C246.55 33.96 245.726 33.224 245.086 32.264L247.078 30.344C247.606 30.968 248.246 31.48 248.998 31.88C249.75 32.28 250.454 32.48 251.11 32.48C251.846 32.48 252.438 32.312 252.886 31.976C253.334 31.64 253.558 31.2 253.558 30.656C253.558 30.256 253.486 29.928 253.342 29.672C253.198 29.416 252.926 29.16 252.526 28.904C252.126 28.632 251.47 28.272 250.558 27.824C249.358 27.232 248.414 26.68 247.726 26.168C247.038 25.656 246.526 25.104 246.19 24.512C245.87 23.904 245.71 23.2 245.71 22.4C245.71 21.52 245.942 20.744 246.406 20.072C246.87 19.4 247.526 18.88 248.374 18.512C249.222 18.144 250.198 17.96 251.302 17.96C252.518 17.96 253.59 18.192 254.518 18.656C255.462 19.12 256.15 19.76 256.582 20.576L254.398 22.208C253.598 21.216 252.614 20.72 251.446 20.72C250.71 20.72 250.142 20.864 249.742 21.152C249.342 21.44 249.142 21.848 249.142 22.376C249.142 22.696 249.238 22.984 249.43 23.24C249.638 23.496 250.006 23.776 250.534 24.08C251.062 24.384 251.854 24.784 252.91 25.28C253.934 25.76 254.734 26.24 255.31 26.72C255.902 27.2 256.326 27.736 256.582 28.328C256.838 28.92 256.966 29.624 256.966 30.44C256.966 31.4 256.718 32.248 256.222 32.984C255.742 33.704 255.046 34.264 254.134 34.664C253.238 35.048 252.19 35.24 250.99 35.24ZM265.577 35.24C263.433 35.24 261.809 34.664 260.705 33.512C259.617 32.36 259.073 30.672 259.073 28.448V18.2H262.529V28.4C262.529 31.12 263.545 32.48 265.577 32.48C267.625 32.48 268.649 31.12 268.649 28.4V18.2H272.105V28.448C272.105 30.672 271.553 32.36 270.449 33.512C269.345 34.664 267.721 35.24 265.577 35.24ZM291.475 18.2V35H288.067V25.112L284.539 35H282.091L278.563 25.112V35H275.155V18.2H278.779L283.315 31.184L287.851 18.2L291.475 18.2ZM294.749 18.2H305.909V20.96H298.205V24.8H305.069V27.56H298.205V32.24H305.909V35H294.749V18.2ZM314.062 18.2H317.518V25.064H323.974V18.2H327.406V35H323.974V27.824H317.518V35H314.062V18.2ZM341.311 30.128H332.959C333.215 31.824 334.199 32.672 335.911 32.672C336.615 32.672 337.223 32.552 337.735 32.312C338.263 32.072 338.775 31.672 339.271 31.112L340.927 32.696C340.463 33.464 339.759 34.08 338.815 34.544C337.887 35.008 336.863 35.24 335.743 35.24C333.871 35.24 332.415 34.696 331.375 33.608C330.335 32.504 329.815 30.984 329.815 29.048C329.815 27.096 330.335 25.56 331.375 24.44C332.431 23.32 333.879 22.76 335.719 22.76C337.479 22.76 338.847 23.312 339.823 24.416C340.815 25.52 341.311 27.056 341.311 29.024V30.128ZM338.311 27.896C338.311 27.08 338.071 26.44 337.591 25.976C337.127 25.496 336.479 25.256 335.647 25.256C334.895 25.256 334.287 25.504 333.823 26C333.359 26.48 333.063 27.16 332.935 28.04H338.311V27.896ZM343.351 25.928C343.351 24.568 343.327 23.592 343.279 23H346.183C346.247 23.624 346.279 24.328 346.279 25.112V25.352H346.375C346.679 24.568 347.215 23.944 347.983 23.48C348.751 23 349.631 22.76 350.623 22.76C350.815 22.76 351.055 22.784 351.343 22.832V25.256C351.279 25.224 351.087 25.208 350.767 25.208C349.999 25.208 349.279 25.416 348.607 25.832C347.951 26.248 347.423 26.808 347.023 27.512C346.623 28.2 346.423 28.944 346.423 29.744V35H343.351V25.928ZM363.858 30.128H355.506C355.762 31.824 356.746 32.672 358.458 32.672C359.162 32.672 359.77 32.552 360.282 32.312C360.81 32.072 361.322 31.672 361.818 31.112L363.474 32.696C363.01 33.464 362.306 34.08 361.362 34.544C360.434 35.008 359.41 35.24 358.29 35.24C356.418 35.24 354.962 34.696 353.922 33.608C352.882 32.504 352.362 30.984 352.362 29.048C352.362 27.096 352.882 25.56 353.922 24.44C354.978 23.32 356.426 22.76 358.266 22.76C360.026 22.76 361.394 23.312 362.37 24.416C363.362 25.52 363.858 27.056 363.858 29.024V30.128ZM360.858 27.896C360.858 27.08 360.618 26.44 360.138 25.976C359.674 25.496 359.026 25.256 358.194 25.256C357.442 25.256 356.834 25.504 356.37 26C355.906 26.48 355.61 27.16 355.482 28.04H360.858V27.896Z" fill="#8633F2"/>
<path d="M216.406 37.4L312.43 37.4V38.6L216.406 38.6V37.4Z" fill="#8633F2"/>
</svg>
