<svg width="87" height="89" viewBox="0 0 87 89" fill="none" xmlns="http://www.w3.org/2000/svg">
<g filter="url(#filter0_d_1343_347)">
<path d="M14.6366 17.4194C14.5832 17.2215 14.5936 17.0129 14.6665 16.8207C14.7394 16.6285 14.8715 16.4615 15.0456 16.3415C15.2197 16.2216 15.4277 16.1541 15.6427 16.1478C15.8576 16.1416 16.0696 16.1968 16.2511 16.3065L48.2765 34.6889C48.4712 34.8009 48.6238 34.9683 48.7127 35.1674C48.8015 35.3665 48.8221 35.587 48.7715 35.7978C48.721 36.0086 48.6018 36.199 48.4309 36.3418C48.26 36.4846 48.0461 36.5726 47.8195 36.5934L34.1779 37.826C33.4073 37.8949 32.6701 38.1588 32.0432 38.59C31.4162 39.0212 30.9222 39.6041 30.6127 40.278L25.1499 52.2195C25.0588 52.4177 24.9044 52.5835 24.7084 52.6935C24.5125 52.8036 24.2851 52.8522 24.0584 52.8325C23.8317 52.8128 23.6174 52.7258 23.4457 52.5838C23.274 52.4418 23.1538 52.2521 23.1021 52.0415L14.6366 17.4194Z" fill="white"/>
<path d="M14.6366 17.4194C14.5832 17.2215 14.5936 17.0129 14.6665 16.8207C14.7394 16.6285 14.8715 16.4615 15.0456 16.3415C15.2197 16.2216 15.4277 16.1541 15.6427 16.1478C15.8576 16.1416 16.0696 16.1968 16.2511 16.3065L48.2765 34.6889C48.4712 34.8009 48.6238 34.9683 48.7127 35.1674C48.8015 35.3665 48.8221 35.587 48.7715 35.7978C48.721 36.0086 48.6018 36.199 48.4309 36.3418C48.26 36.4846 48.0461 36.5726 47.8195 36.5934L34.1779 37.826C33.4073 37.8949 32.6701 38.1588 32.0432 38.59C31.4162 39.0212 30.9222 39.6041 30.6127 40.278L25.1499 52.2195C25.0588 52.4177 24.9044 52.5835 24.7084 52.6935C24.5125 52.8036 24.2851 52.8522 24.0584 52.8325C23.8317 52.8128 23.6174 52.7258 23.4457 52.5838C23.274 52.4418 23.1538 52.2521 23.1021 52.0415L14.6366 17.4194Z" stroke="#9FF233" stroke-width="4" stroke-linecap="round" stroke-linejoin="round"/>
</g>
<defs>
<filter id="filter0_d_1343_347" x="0.598145" y="0.152283" width="86.2056" height="88.6795" filterUnits="userSpaceOnUse" color-interpolation-filters="sRGB">
<feFlood flood-opacity="0" result="BackgroundImageFix"/>
<feColorMatrix in="SourceAlpha" type="matrix" values="0 0 0 0 0 0 0 0 0 0 0 0 0 0 0 0 0 0 127 0" result="hardAlpha"/>
<feOffset dx="12" dy="10"/>
<feGaussianBlur stdDeviation="12"/>
<feComposite in2="hardAlpha" operator="out"/>
<feColorMatrix type="matrix" values="0 0 0 0 0.156277 0 0 0 0 0.0664312 0 0 0 0 0.273077 0 0 0 0.18 0"/>
<feBlend mode="normal" in2="BackgroundImageFix" result="effect1_dropShadow_1343_347"/>
<feBlend mode="normal" in="SourceGraphic" in2="effect1_dropShadow_1343_347" result="shape"/>
</filter>
</defs>
</svg>
