<svg width="89" height="89" viewBox="0 0 89 89" fill="none" xmlns="http://www.w3.org/2000/svg">
<g filter="url(#filter0_d_1343_342)">
<path d="M49.3098 16.582C49.5031 16.4924 49.7203 16.4601 49.9332 16.4893C50.146 16.5185 50.3448 16.6078 50.5035 16.7456C50.6623 16.8835 50.7737 17.0635 50.8234 17.2622C50.8731 17.461 50.8588 17.6694 50.7822 17.8603L38.2695 51.3579C38.1932 51.5615 38.0513 51.7372 37.8639 51.86C37.6765 51.9827 37.4532 52.0462 37.2256 52.0416C36.9981 52.0369 36.7778 51.9643 36.5962 51.834C36.4145 51.7038 36.2807 51.5225 36.2136 51.3158L32.198 38.8705C31.9718 38.1673 31.5515 37.5345 30.9806 37.0379C30.4098 36.5413 29.7094 36.199 28.9521 36.0465L15.5389 33.3661C15.3162 33.3212 15.1141 33.2109 14.9612 33.0507C14.8083 32.8905 14.7124 32.6887 14.6871 32.4738C14.6619 32.2589 14.7085 32.0419 14.8203 31.8536C14.9322 31.6654 15.1037 31.5153 15.3104 31.4248L49.3098 16.582Z" fill="white"/>
<path d="M49.3098 16.582C49.5031 16.4924 49.7203 16.4601 49.9332 16.4893C50.146 16.5185 50.3448 16.6078 50.5035 16.7456C50.6623 16.8835 50.7737 17.0635 50.8234 17.2622C50.8731 17.461 50.8588 17.6694 50.7822 17.8603L38.2695 51.3579C38.1932 51.5615 38.0513 51.7372 37.8639 51.86C37.6765 51.9827 37.4532 52.0462 37.2256 52.0416C36.9981 52.0369 36.7778 51.9643 36.5962 51.834C36.4145 51.7038 36.2807 51.5225 36.2136 51.3158L32.198 38.8705C31.9718 38.1673 31.5515 37.5345 30.9806 37.0379C30.4098 36.5413 29.7094 36.199 28.9521 36.0465L15.5389 33.3661C15.3162 33.3212 15.1141 33.2109 14.9612 33.0507C14.8083 32.8905 14.7124 32.6887 14.6871 32.4738C14.6619 32.2589 14.7085 32.0419 14.8203 31.8536C14.9322 31.6654 15.1037 31.5153 15.3104 31.4248L49.3098 16.582Z" stroke="#E1DEE0" stroke-width="4" stroke-linecap="round" stroke-linejoin="round"/>
</g>
<defs>
<filter id="filter0_d_1343_342" x="0.680176" y="0.479248" width="88.1729" height="87.5622" filterUnits="userSpaceOnUse" color-interpolation-filters="sRGB">
<feFlood flood-opacity="0" result="BackgroundImageFix"/>
<feColorMatrix in="SourceAlpha" type="matrix" values="0 0 0 0 0 0 0 0 0 0 0 0 0 0 0 0 0 0 127 0" result="hardAlpha"/>
<feOffset dx="12" dy="10"/>
<feGaussianBlur stdDeviation="12"/>
<feComposite in2="hardAlpha" operator="out"/>
<feColorMatrix type="matrix" values="0 0 0 0 0.156277 0 0 0 0 0.0664312 0 0 0 0 0.273077 0 0 0 0.18 0"/>
<feBlend mode="normal" in2="BackgroundImageFix" result="effect1_dropShadow_1343_342"/>
<feBlend mode="normal" in="SourceGraphic" in2="effect1_dropShadow_1343_342" result="shape"/>
</filter>
</defs>
</svg>
