<svg width="102" height="6" viewBox="0 0 102 6" fill="none" xmlns="http://www.w3.org/2000/svg">
<path d="M102 3.47656C101.998 4.06457 101.56 4.37764 101.438 4.46094C101.254 4.586 101.038 4.67894 100.844 4.75L100.344 4.9375L99.8438 5.11719C99.3633 5.29242 98.8808 5.21535 98.4844 4.97656C98.1298 4.76221 97.8617 4.43266 97.6562 4.10938L97.1562 3.32031L96.6562 2.53906C96.5947 2.44215 96.5422 2.36818 96.5 2.32031H96.4922L96.1797 2.375L95.6797 2.46875C95.2234 2.55043 94.7597 2.54313 94.3047 2.45312L93.8047 2.35156L93.4688 2.28906C93.4312 2.32939 93.3836 2.38746 93.3281 2.46875L92.8281 3.21094L92.3281 3.94531C92.1149 4.25842 91.7823 4.62856 91.2969 4.78125C90.7241 4.96006 90.2131 4.75752 89.8594 4.46094L89.3594 4.03906L88.9609 3.70312L88.6016 3.98438L88.1016 4.35156C87.6898 4.65876 87.2454 4.8986 86.7734 5.03125L86.2734 5.17188L85.7734 5.30469C84.8545 5.56222 84.1448 5.00841 83.7188 4.46875L82.7188 3.20312C82.4499 2.86262 82.2832 2.80313 82.2578 2.79688L81.7578 2.67969L81.2578 2.55469C80.9377 2.4759 80.6166 2.40176 80.2969 2.33594L79.7969 2.23438L79.4297 2.16406C79.3963 2.197 79.355 2.24557 79.3047 2.3125L78.3047 3.65625C78.0788 3.95832 77.7205 4.3146 77.2031 4.42188C76.6215 4.54236 76.1378 4.29269 75.8203 4L75.3203 3.53906L75.1641 3.39062L74.8203 3.89062L74.3203 4.61719C74.1051 4.92812 73.74 5.33384 73.1797 5.4375C72.542 5.55461 72.0525 5.22297 71.7656 4.91406L70.7656 3.83594C70.6562 3.71826 70.5814 3.66597 70.5469 3.64844L70.0625 3.67969L69.5625 3.71094C69.0777 3.74075 68.5977 3.65833 68.1406 3.48438L67.6406 3.29688L67.1406 3.10156L67.0469 3.14062L66.0469 3.79688C65.7101 4.01804 65.2945 4.147 64.8359 4.07031C64.4007 3.99724 64.0546 3.76317 63.7969 3.50781L63.2969 3.00781L62.9375 2.66406L62.6406 2.91406L62.1406 3.33594C61.8571 3.57374 61.4843 3.76997 61.0391 3.78906C60.5896 3.80731 60.2012 3.64205 59.8984 3.41406L59.3984 3.03125L58.8984 2.65625C58.8199 2.5969 58.7759 2.59432 58.7734 2.59375L58.2812 2.73438L57.7812 2.88281C57.6279 2.92867 57.4241 3.03717 57.1719 3.26562L56.1719 4.17188C55.7031 4.59636 55.095 4.89541 54.3906 4.82031L53.8906 4.77344L53.3906 4.71875C52.7533 4.64987 52.2184 4.30614 51.7891 3.875L51.2891 3.36719L51.0938 3.17188L50.7891 3.57031L50.2891 4.21094C49.8682 4.75582 49.1532 5.33796 48.2188 5.0625L47.2188 4.76562C47.1594 4.748 47.0921 4.73927 46.9688 4.80469L45.9688 5.33594C45.4805 5.59508 44.9404 5.5635 44.4844 5.28906C44.1036 5.05947 43.8311 4.69529 43.6328 4.35156L43.1328 3.48438L42.9141 3.10938L42.8203 3.25L42.3203 3.96094C41.9298 4.51588 41.2226 5.18551 40.25 4.9375L39.75 4.80469L39.25 4.67969C38.9987 4.61587 38.7511 4.58369 38.5078 4.58594L38.0078 4.59375H37.5078C36.9318 4.59875 36.4031 4.40262 35.9375 4.08594L35.4375 3.75L34.9375 3.40625C34.655 3.21422 34.3794 3.0689 34.1172 2.96094L33.3672 2.65625C33.3544 2.67333 33.3349 2.68981 33.3203 2.71094L32.3203 4.16406C32.106 4.47504 31.7854 4.83688 31.3125 4.99219C30.7537 5.17508 30.2397 4.99423 29.875 4.70312L28.875 3.90625C28.8349 3.87439 28.8055 3.85977 28.7891 3.85156L28.3203 4.00781L27.8203 4.17969C27.3472 4.33812 26.8526 4.38899 26.3594 4.32031L25.3594 4.17969C25.0646 4.13874 24.7703 4.11615 24.4766 4.10938L23.9766 4.09375L23.4766 4.08594C23.0457 4.07597 22.6212 3.99784 22.2031 3.86719L21.2031 3.55469C20.9407 3.47265 20.6824 3.42525 20.4297 3.40625L19.9297 3.36719L19.4297 3.33594C19.4053 3.33413 19.3077 3.32786 19.1172 3.47656L18.1172 4.25781C17.7469 4.54748 17.3685 4.80282 16.9844 5.01562L16.4844 5.28906L15.9844 5.57031C15.5801 5.79406 15.1031 5.84814 14.6406 5.67188C14.231 5.51489 13.9255 5.21409 13.7031 4.92188L13.2031 4.25781L12.9062 3.86719L12.7188 4.0625L12.2188 4.57812C11.9547 4.84963 11.573 5.11724 11.0781 5.15625C10.5661 5.19643 10.1451 4.97325 9.84375 4.71094L9.34375 4.28125L8.84375 3.84375C8.55081 3.58878 8.26476 3.38611 7.99219 3.22656L7.49219 2.92969L6.99219 2.64062C6.97347 2.62977 6.95996 2.62755 6.95312 2.625H6.94531L6.44531 2.875L5.94531 3.13281C5.49747 3.3565 5.0185 3.48703 4.52344 3.5L4.02344 3.50781L3.52344 3.52344C3.29944 3.52971 2.90195 3.59312 2.28906 3.74219L1.33594 3.96875L1.21875 4H1V2.57031L0.867188 2.03125L1.8125 1.79688C2.4626 1.63867 3.03363 1.53504 3.47656 1.52344L3.97656 1.51562L4.47656 1.5C4.64621 1.49514 4.83803 1.45223 5.05469 1.34375L6.05469 0.84375C6.70327 0.519172 7.39539 0.555593 8.00781 0.914062L8.50781 1.20312L9.00781 1.5C9.40103 1.7304 9.78331 2.01134 10.1562 2.33594L10.6562 2.77344L10.9375 3.01562L11.2812 2.67188L11.7812 2.15625C12.071 1.8584 12.5392 1.55486 13.1406 1.64062C13.6903 1.71982 14.0674 2.08879 14.2969 2.39062L14.7969 3.04688L15.2656 3.67188L15.5156 3.53906L16.0156 3.26562C16.2975 3.10946 16.5873 2.91853 16.8828 2.6875L17.8828 1.90625C18.3571 1.53528 18.9296 1.28956 19.5703 1.33594L20.5703 1.41406C20.9826 1.44462 21.3944 1.52275 21.7969 1.64844L22.7969 1.96094C23.0453 2.03857 23.2879 2.08051 23.5234 2.08594L24.0234 2.09375L24.5234 2.10938C24.8954 2.11797 25.2697 2.14366 25.6406 2.19531L26.6406 2.33594C26.8125 2.3595 26.988 2.34506 27.1797 2.28125L27.6797 2.11719L28.1797 1.94531L28.7188 1.84375C29.2414 1.8222 29.7253 2.02473 30.125 2.34375L30.625 2.74219L30.7812 2.875L31.1797 2.30469L31.6797 1.57812C31.8916 1.27049 32.1685 0.95848 32.5391 0.765625C32.8508 0.603373 33.1951 0.542755 33.5391 0.601562L33.8828 0.703125L34.8828 1.10938C35.2865 1.2757 35.6791 1.49701 36.0625 1.75781L36.5625 2.09375L37.0625 2.4375C37.2627 2.57341 37.4022 2.60239 37.4922 2.60156L38.4922 2.58594C38.9142 2.58217 39.3361 2.63664 39.75 2.74219L40.25 2.86719L40.5547 2.95312C40.5872 2.91813 40.6322 2.87228 40.6797 2.80469L41.6797 1.38281L41.8984 1.125C42.165 0.847668 42.5845 0.567017 43.1562 0.65625C43.8105 0.75937 44.1829 1.29759 44.3672 1.61719L45.3672 3.35156C45.372 3.3599 45.3782 3.36714 45.3828 3.375L45.5312 3.30469L46.0312 3.03906C46.5733 2.75138 47.1753 2.6649 47.7812 2.84375L48.2812 2.99219L48.6172 3.08594C48.6411 3.06067 48.6785 3.03425 48.7109 2.99219L49.7109 1.69531C49.9428 1.39573 50.3178 1.03965 50.8594 0.960938C51.3017 0.897489 51.6714 1.04158 51.9531 1.24219L52.2109 1.46094L53.2109 2.46094C53.447 2.69766 53.5814 2.72358 53.6094 2.72656L54.1094 2.78125L54.6016 2.83594C54.6025 2.8358 54.6175 2.83425 54.6328 2.82812C54.6662 2.81428 54.7312 2.77529 54.8281 2.6875L55.8281 1.78125C56.2411 1.40725 56.7058 1.11267 57.2188 0.960938L57.7188 0.8125L58.2188 0.671875L58.7344 0.585938C59.2387 0.573593 59.7054 0.763256 60.1016 1.0625L60.6016 1.4375L60.9688 1.71094L61.3594 1.38281L61.8594 0.960938L62.3906 0.640625C62.5954 0.561687 62.8278 0.520118 63.0781 0.539062C63.319 0.557687 63.5313 0.634057 63.7188 0.734375L64.2031 1.09375L65.125 2.01562L65.4531 1.79688L65.9531 1.46875C66.5175 1.09921 67.1885 0.979054 67.8594 1.23438L68.3594 1.42188L68.8594 1.61719C69.0671 1.6957 69.257 1.72188 69.4375 1.71094L70.4375 1.64844L70.9766 1.69531C71.4825 1.81059 71.9056 2.12258 72.2344 2.47656L72.7344 3.01562L72.8828 3.17188L73.1797 2.75781L73.6797 2.03125C73.8949 1.72028 74.2382 1.33713 74.75 1.20312C75.1964 1.08746 75.5911 1.20068 75.8984 1.39062L76.1797 1.60156L76.6797 2.0625L76.8594 2.23438L77.1953 1.78906L77.6953 1.11719C78.0496 0.643357 78.6165 0.127646 79.3672 0.132812L79.7031 0.171875L80.7031 0.375C81.0488 0.446173 81.3968 0.524324 81.7422 0.609375L82.7422 0.859375C83.3819 1.01797 83.8841 1.4657 84.2812 1.96875L85.2812 3.23438C85.3179 3.28082 85.357 3.31011 85.3828 3.33594L85.7266 3.24219L86.2266 3.10156C86.4198 3.04739 86.6451 2.93865 86.8984 2.75L87.3984 2.375L87.8984 2.00781C88.2037 1.78006 88.5964 1.61157 89.0469 1.63281C89.2694 1.64339 89.4729 1.69948 89.6562 1.78125L90.1406 2.08594L90.6406 2.50781L90.7891 2.64062L91.1719 2.08594L91.6719 1.34375C92.0033 0.857188 92.5637 0.26995 93.3438 0.257812L93.6953 0.289062L94.6953 0.492188C94.9051 0.5335 95.1118 0.536842 95.3203 0.5L95.8203 0.40625L96.3203 0.320312C97.3139 0.142462 97.9839 0.895147 98.3438 1.46094L99.3438 3.03906C99.369 3.07868 99.3931 3.11195 99.4141 3.14062L99.6562 3.05469L99.8438 2.99219L99.5312 2H101V2.96875L101.852 2.69531L101.953 3.01562L102 3.16406V3.47656Z" fill="#9FF233"/>
</svg>
