<svg width="140" height="45" viewBox="0 0 140 45" fill="none" xmlns="http://www.w3.org/2000/svg">
<rect x="0.997557" y="0.999997" width="137.612" height="42.2964" rx="21.1482" transform="matrix(1 0 -0.00244259 0.999997 0.248048 0.679721)" fill="#8633F2"/>
<rect x="0.997557" y="0.999997" width="137.612" height="42.2964" rx="21.1482" transform="matrix(1 0 -0.00244259 0.999997 0.248048 0.679721)" stroke="#9FF233" stroke-width="2"/>
<path d="M30.5168 31.0078C29.7848 31.0078 29.0951 30.8878 28.4477 30.6478C27.8123 30.4078 27.2672 30.0598 26.8123 29.6038L27.987 27.6599C28.7173 28.3559 29.5085 28.7039 30.3605 28.7039C30.9005 28.7039 31.2849 28.5299 31.5137 28.1819C31.7546 27.8339 31.876 27.2639 31.8779 26.4719L31.8981 18.2279H34.7961L34.7752 26.7779C34.7717 28.1939 34.4151 29.2559 33.7054 29.9638C33.0077 30.6598 31.9448 31.0078 30.5168 31.0078ZM39.459 31.0078C38.871 31.0078 38.3433 30.8818 37.876 30.6298C37.4086 30.3778 37.0434 30.0358 36.7805 29.6038C36.5176 29.1599 36.3868 28.6619 36.3881 28.1099C36.3904 27.1859 36.7641 26.4779 37.5093 25.9859C38.2545 25.4939 39.3231 25.2479 40.7151 25.2479H41.9751L41.976 24.8879C41.977 24.4799 41.8458 24.1619 41.5823 23.9339C41.3189 23.7059 40.9592 23.5919 40.5032 23.5919C39.9632 23.5919 39.4409 23.6819 38.9365 23.8619C38.4441 24.0419 38.0355 24.2879 37.7107 24.5999L36.6163 23.1419C37.1334 22.6859 37.7402 22.3259 38.4369 22.0619C39.1456 21.7859 39.8599 21.6479 40.5799 21.6479C41.8039 21.6479 42.7692 21.9359 43.4758 22.5119C44.1824 23.0759 44.5345 23.8499 44.5321 24.8339L44.5222 28.8839C44.5215 29.1719 44.5447 29.5138 44.5917 29.9098C44.6388 30.3058 44.692 30.6118 44.7515 30.8278H42.4655C42.3939 30.6598 42.3403 30.5098 42.3046 30.3778C42.2689 30.2458 42.2394 30.0598 42.2159 29.8198H42.1799C41.506 30.6118 40.599 31.0078 39.459 31.0078ZM40.1477 29.1179C40.6757 29.1179 41.108 28.9859 41.4446 28.7219C41.7933 28.4459 41.9682 28.0979 41.9692 27.6779L41.971 26.9219H40.639C40.075 26.9219 39.6428 27.0239 39.3423 27.2279C39.0418 27.4319 38.8911 27.7259 38.8901 28.1099C38.8893 28.4339 38.9967 28.6859 39.2123 28.8659C39.4279 29.0339 39.7397 29.1179 40.1477 29.1179ZM55.0727 21.8279L51.5047 30.8278H49.3087L45.7847 21.8279H48.4127L50.4144 27.6779L52.4447 21.8279H55.0727ZM58.3204 31.0078C57.7324 31.0078 57.2047 30.8818 56.7373 30.6298C56.2699 30.3778 55.9047 30.0358 55.6418 29.6038C55.3789 29.1599 55.2481 28.6619 55.2494 28.1099C55.2517 27.1859 55.6254 26.4779 56.3706 25.9859C57.1158 25.4939 58.1844 25.2479 59.5764 25.2479H60.8364L60.8373 24.8879C60.8383 24.4799 60.7071 24.1619 60.4436 23.9339C60.1802 23.7059 59.8205 23.5919 59.3645 23.5919C58.8245 23.5919 58.3023 23.6819 57.7978 23.8619C57.3054 24.0419 56.8968 24.2879 56.572 24.5999L55.4776 23.1419C55.9947 22.6859 56.6016 22.3259 57.2982 22.0619C58.0069 21.7859 58.7212 21.6479 59.4412 21.6479C60.6652 21.6479 61.6305 21.9359 62.3371 22.5119C63.0437 23.0759 63.3959 23.8499 63.3935 24.8339L63.3836 28.8839C63.3829 29.1719 63.406 29.5138 63.4531 29.9098C63.5001 30.3058 63.5533 30.6118 63.6128 30.8278H61.3268C61.2552 30.6598 61.2016 30.5098 61.1659 30.3778C61.1302 30.2458 61.1007 30.0598 61.0773 29.8198H61.0413C60.3673 30.6118 59.4604 31.0078 58.3204 31.0078ZM59.009 29.1179C59.537 29.1179 59.9693 28.9859 60.306 28.7219C60.6546 28.4459 60.8295 28.0979 60.8305 27.6779L60.8324 26.9219H59.5004C58.9364 26.9219 58.5041 27.0239 58.2036 27.2279C57.9031 27.4319 57.7524 27.7259 57.7514 28.1099C57.7507 28.4339 57.858 28.6859 58.0736 28.8659C58.2892 29.0339 58.601 29.1179 59.009 29.1179ZM69.3756 31.0078C68.3916 31.0078 67.5041 30.8098 66.7131 30.4138C65.934 30.0178 65.2994 29.4418 64.8093 28.6859L66.4871 27.1019C66.882 27.5699 67.3551 27.9539 67.9063 28.2539C68.4696 28.5539 68.9912 28.7039 69.4712 28.7039C69.9752 28.7039 70.3775 28.5959 70.678 28.3799C70.9786 28.1639 71.1292 27.8819 71.1301 27.5339C71.1308 27.2579 71.0833 27.0419 70.9877 26.8859C70.9041 26.7299 70.7185 26.5679 70.4309 26.3999C70.1553 26.2199 69.6759 25.9559 68.9928 25.6079C68.0819 25.1519 67.3689 24.7319 66.8539 24.3479C66.3388 23.9639 65.9498 23.5439 65.6869 23.0879C65.4361 22.6199 65.3114 22.0679 65.313 21.4319C65.3146 20.7719 65.496 20.1839 65.8573 19.6679C66.2186 19.1519 66.7235 18.7559 67.3722 18.4799C68.0329 18.1919 68.7893 18.0479 69.6413 18.0479C70.5893 18.0479 71.4168 18.2219 72.124 18.5699C72.8431 18.9179 73.3699 19.4039 73.7044 20.0279L71.8831 21.3959C71.2968 20.6999 70.5956 20.3519 69.7796 20.3519C69.2756 20.3519 68.8854 20.4479 68.6089 20.6399C68.3445 20.8199 68.2119 21.0779 68.211 21.4139C68.2105 21.6299 68.288 21.8279 68.4436 22.0079C68.5991 22.1879 68.8687 22.3919 69.2521 22.6199C69.6476 22.8359 70.2349 23.1239 71.014 23.4839C71.7691 23.8319 72.3623 24.1859 72.7934 24.5459C73.2245 24.8939 73.5296 25.2959 73.7084 25.7519C73.8994 26.1959 73.994 26.7359 73.9925 27.3719C73.9907 28.1039 73.7971 28.7459 73.4118 29.2979C73.0385 29.8378 72.5034 30.2578 71.8067 30.5578C71.11 30.8578 70.2996 31.0078 69.3756 31.0078ZM79.4307 31.0078C78.0027 31.0078 76.8817 30.5938 76.0677 29.7658C75.2658 28.9259 74.8666 27.7799 74.8701 26.3279C74.8737 24.8759 75.2785 23.7359 76.0845 22.9079C76.9026 22.0679 78.0256 21.6479 79.4536 21.6479C80.3176 21.6479 81.0672 21.8099 81.7024 22.1339C82.3496 22.4459 82.8345 22.8959 83.1571 23.4839L81.6238 24.8159C81.3968 24.4319 81.1035 24.1319 80.744 23.9159C80.3846 23.6999 79.9948 23.5919 79.5748 23.5919C78.9028 23.5919 78.3742 23.8379 77.989 24.3299C77.6039 24.8099 77.4102 25.4759 77.4081 26.3279C77.4061 27.1799 77.5964 27.8519 77.9792 28.3439C78.362 28.8239 78.8895 29.0639 79.5615 29.0639C79.9815 29.0639 80.3717 28.9559 80.7323 28.7399C81.0928 28.5239 81.3875 28.2239 81.6165 27.8399L83.1432 29.1719C82.8178 29.7598 82.3306 30.2158 81.6819 30.5398C81.0451 30.8518 80.2947 31.0078 79.4307 31.0078ZM84.2906 24.0239C84.2931 23.0039 84.2769 22.2719 84.242 21.8279H86.672C86.7188 22.2959 86.7415 22.8239 86.7401 23.4119L86.7397 23.5919H86.8117C87.0411 23.0039 87.4503 22.5359 88.0391 22.1879C88.64 21.8279 89.3244 21.6479 90.0924 21.6479C90.2484 21.6479 90.4344 21.6659 90.6503 21.7019L90.6454 23.6999C90.6214 23.6879 90.5015 23.6819 90.2855 23.6819C89.6735 23.6819 89.1031 23.8379 88.5743 24.1499C88.0455 24.4619 87.6245 24.8759 87.3113 25.3919C86.998 25.9079 86.8407 26.4659 86.8392 27.0659L86.83 30.8278H84.274L84.2906 24.0239ZM93.3716 20.9639C92.8916 20.9639 92.502 20.8319 92.2026 20.5679C91.9153 20.3039 91.7721 19.9499 91.7732 19.5059C91.7743 19.0619 91.9191 18.7079 92.2078 18.4439C92.5084 18.1799 92.8988 18.0479 93.3788 18.0479C93.8588 18.0479 94.2424 18.1799 94.5298 18.4439C94.8291 18.7079 94.9783 19.0619 94.9772 19.5059C94.9761 19.9499 94.8253 20.3039 94.5246 20.5679C94.236 20.8319 93.8516 20.9639 93.3716 20.9639ZM92.0915 21.8279H94.6475L94.6255 30.8278H92.0695L92.0915 21.8279ZM96.8057 24.2579C96.8067 23.8379 96.7958 23.4059 96.7728 22.9619C96.7619 22.5179 96.7448 22.1399 96.7216 21.8279H99.1516C99.1868 22.1639 99.2039 22.5359 99.2029 22.9439H99.2389C99.5519 22.5239 99.9367 22.2059 100.393 21.9899C100.85 21.7619 101.372 21.6479 101.96 21.6479C103.1 21.6479 103.999 22.0679 104.657 22.9079C105.315 23.7479 105.642 24.8939 105.639 26.3459C105.635 27.8099 105.296 28.9559 104.622 29.7838C103.96 30.5998 103.041 31.0078 101.865 31.0078C101.313 31.0078 100.815 30.9178 100.372 30.7378C99.9403 30.5578 99.6169 30.3118 99.4016 29.9998H99.3476L99.335 35.1838H96.779L96.8057 24.2579ZM101.276 29.1179C101.864 29.1179 102.308 28.8779 102.61 28.3979C102.923 27.9059 103.08 27.1979 103.083 26.2739C103.087 24.4859 102.501 23.5919 101.325 23.5919C100.737 23.5919 100.263 23.7599 99.9021 24.0959C99.5412 24.4319 99.3602 24.8699 99.3589 25.4099L99.3542 27.3359C99.353 27.8279 99.5379 28.2479 99.9091 28.5959C100.292 28.9439 100.748 29.1179 101.276 29.1179ZM111.104 31.0078C110.132 31.0078 109.377 30.7558 108.838 30.2518C108.311 29.7478 108.049 29.0399 108.051 28.1279L108.062 23.7179H106.424L106.429 21.8279H108.067L108.072 19.5419L110.558 18.8219H110.63L110.623 21.8279H113.251L113.246 23.7179H110.618L110.608 27.7319C110.607 28.2119 110.726 28.5659 110.966 28.7939C111.205 29.0099 111.577 29.1179 112.081 29.1179C112.561 29.1179 113.005 29.0399 113.414 28.8839L113.517 30.6118C112.917 30.8758 112.112 31.0078 111.104 31.0078Z" fill="#9FF233"/>
</svg>
