<svg width="80" height="45" viewBox="0 0 80 45" fill="none" xmlns="http://www.w3.org/2000/svg">
<rect x="1" y="1" width="77.7656" height="42.3032" rx="21.1516" fill="#8633F2"/>
<rect x="1" y="1" width="77.7656" height="42.3032" rx="21.1516" stroke="#9FF233" stroke-width="2"/>
<path d="M30.9511 30.3316C29.7511 30.3316 28.7011 30.0676 27.8011 29.5396C26.9011 29.0116 26.2051 28.2616 25.7131 27.2896C25.2331 26.3056 24.9931 25.1596 24.9931 23.8516C24.9931 22.5436 25.2331 21.4036 25.7131 20.4316C26.2051 19.4476 26.9011 18.6916 27.8011 18.1636C28.7011 17.6356 29.7511 17.3716 30.9511 17.3716C32.0071 17.3716 32.9191 17.5756 33.6871 17.9836C34.4551 18.3796 35.0191 18.9436 35.3791 19.6756L33.7231 21.0976C33.0991 20.1496 32.1871 19.6756 30.9871 19.6756C29.9671 19.6756 29.1931 20.0296 28.6651 20.7376C28.1491 21.4336 27.8911 22.4716 27.8911 23.8516C27.8911 25.2196 28.1491 26.2576 28.6651 26.9656C29.1811 27.6736 29.9371 28.0276 30.9331 28.0276C32.1931 28.0276 33.1231 27.5536 33.7231 26.6056L35.3791 28.0276C35.0191 28.7596 34.4551 29.3296 33.6871 29.7376C32.9191 30.1336 32.0071 30.3316 30.9511 30.3316ZM40.8126 30.3316C39.8286 30.3316 38.9406 30.1336 38.1486 29.7376C37.3686 29.3416 36.7326 28.7656 36.2406 28.0096L37.9146 26.4256C38.3106 26.8936 38.7846 27.2776 39.3366 27.5776C39.9006 27.8776 40.4226 28.0276 40.9026 28.0276C41.4066 28.0276 41.8086 27.9196 42.1086 27.7036C42.4086 27.4876 42.5586 27.2056 42.5586 26.8576C42.5586 26.5816 42.5106 26.3656 42.4146 26.2096C42.3306 26.0536 42.1446 25.8916 41.8566 25.7236C41.5806 25.5436 41.1006 25.2796 40.4166 24.9316C39.5046 24.4756 38.7906 24.0556 38.2746 23.6716C37.7586 23.2876 37.3686 22.8676 37.1046 22.4116C36.8526 21.9436 36.7266 21.3916 36.7266 20.7556C36.7266 20.0956 36.9066 19.5076 37.2666 18.9916C37.6266 18.4756 38.1306 18.0796 38.7786 17.8036C39.4386 17.5156 40.1946 17.3716 41.0466 17.3716C41.9946 17.3716 42.8226 17.5456 43.5306 17.8936C44.2506 18.2416 44.7786 18.7276 45.1146 19.3516L43.2966 20.7196C42.7086 20.0236 42.0066 19.6756 41.1906 19.6756C40.6866 19.6756 40.2966 19.7716 40.0206 19.9636C39.7566 20.1436 39.6246 20.4016 39.6246 20.7376C39.6246 20.9536 39.7026 21.1516 39.8586 21.3316C40.0146 21.5116 40.2846 21.7156 40.6686 21.9436C41.0646 22.1596 41.6526 22.4476 42.4326 22.8076C43.1886 23.1556 43.7826 23.5096 44.2146 23.8696C44.6466 24.2176 44.9526 24.6196 45.1326 25.0756C45.3246 25.5196 45.4206 26.0596 45.4206 26.6956C45.4206 27.4276 45.2286 28.0696 44.8446 28.6216C44.4726 29.1616 43.9386 29.5816 43.2426 29.8816C42.5466 30.1816 41.7366 30.3316 40.8126 30.3316ZM50.8497 30.3316C49.8657 30.3316 48.9777 30.1336 48.1857 29.7376C47.4057 29.3416 46.7697 28.7656 46.2777 28.0096L47.9517 26.4256C48.3477 26.8936 48.8217 27.2776 49.3737 27.5776C49.9377 27.8776 50.4597 28.0276 50.9397 28.0276C51.4437 28.0276 51.8457 27.9196 52.1457 27.7036C52.4457 27.4876 52.5957 27.2056 52.5957 26.8576C52.5957 26.5816 52.5477 26.3656 52.4517 26.2096C52.3677 26.0536 52.1817 25.8916 51.8937 25.7236C51.6177 25.5436 51.1377 25.2796 50.4537 24.9316C49.5417 24.4756 48.8277 24.0556 48.3117 23.6716C47.7957 23.2876 47.4057 22.8676 47.1417 22.4116C46.8897 21.9436 46.7637 21.3916 46.7637 20.7556C46.7637 20.0956 46.9437 19.5076 47.3037 18.9916C47.6637 18.4756 48.1677 18.0796 48.8157 17.8036C49.4757 17.5156 50.2317 17.3716 51.0837 17.3716C52.0317 17.3716 52.8597 17.5456 53.5677 17.8936C54.2877 18.2416 54.8157 18.7276 55.1517 19.3516L53.3337 20.7196C52.7457 20.0236 52.0437 19.6756 51.2277 19.6756C50.7237 19.6756 50.3337 19.7716 50.0577 19.9636C49.7937 20.1436 49.6617 20.4016 49.6617 20.7376C49.6617 20.9536 49.7397 21.1516 49.8957 21.3316C50.0517 21.5116 50.3217 21.7156 50.7057 21.9436C51.1017 22.1596 51.6897 22.4476 52.4697 22.8076C53.2257 23.1556 53.8197 23.5096 54.2517 23.8696C54.6837 24.2176 54.9897 24.6196 55.1697 25.0756C55.3617 25.5196 55.4577 26.0596 55.4577 26.6956C55.4577 27.4276 55.2657 28.0696 54.8817 28.6216C54.5097 29.1616 53.9757 29.5816 53.2797 29.8816C52.5837 30.1816 51.7737 30.3316 50.8497 30.3316Z" fill="#9FF233"/>
</svg>
