<svg width="102" height="45" viewBox="0 0 102 45" fill="none" xmlns="http://www.w3.org/2000/svg">
<rect x="0.997557" y="0.999997" width="99.7612" height="42.2964" rx="21.1482" transform="matrix(1 0 -0.00244259 0.999997 0.110841 2.98022e-06)" fill="#8633F2"/>
<rect x="0.997557" y="0.999997" width="99.7612" height="42.2964" rx="21.1482" transform="matrix(1 0 -0.00244259 0.999997 0.110841 2.98022e-06)" stroke="#9FF233" stroke-width="2"/>
<path d="M27.1139 17.5482H35.8259L35.8203 19.8522H30.0063L29.9989 22.8581H35.4349L35.4293 25.1621H29.9933L29.9811 30.1481H27.0831L27.1139 17.5482ZM38.9698 20.2842C38.4898 20.2842 38.1001 20.1522 37.8007 19.8882C37.5134 19.6242 37.3703 19.2702 37.3713 18.8262C37.3724 18.3822 37.5173 18.0282 37.8059 17.7642C38.1066 17.5002 38.4969 17.3682 38.9769 17.3682C39.4569 17.3682 39.8406 17.5002 40.1279 17.7642C40.4273 18.0282 40.5764 18.3822 40.5753 18.8262C40.5743 19.2702 40.4234 19.6242 40.1228 19.8882C39.8341 20.1522 39.4498 20.2842 38.9698 20.2842ZM37.6897 21.1482H40.2457L40.2237 30.1481H37.6677L37.6897 21.1482ZM50.7798 21.1482L50.7587 29.7701C50.7549 31.3061 50.3621 32.4641 49.5802 33.2441C48.8103 34.0361 47.6633 34.4321 46.1393 34.4321C45.4073 34.4321 44.7235 34.3421 44.088 34.1621C43.4524 33.9941 42.895 33.7481 42.4158 33.4241L43.2659 31.7141C43.6854 31.9301 44.141 32.1041 44.6327 32.2361C45.1363 32.3681 45.5982 32.4341 46.0182 32.4341C46.7862 32.4341 47.3568 32.1821 47.73 31.6781C48.1032 31.1861 48.2911 30.4361 48.2935 29.4281L48.2938 29.3021C47.7884 29.8781 46.9957 30.1661 45.9157 30.1661C44.6437 30.1661 43.6607 29.7701 42.9666 28.9781C42.2846 28.1741 41.9454 27.0281 41.949 25.5401C41.9526 24.0761 42.2854 22.9481 42.9473 22.1562C43.6092 21.3642 44.5402 20.9682 45.7402 20.9682C46.9762 20.9682 47.8752 21.3882 48.4371 22.2282H48.4731L48.6378 21.1482H50.7798ZM48.2141 25.1081C48.2159 24.3641 48.0673 23.8061 47.7682 23.4341C47.4691 23.0501 47.0256 22.8581 46.4376 22.8581C45.8016 22.8581 45.315 23.0921 44.9779 23.5601C44.6527 24.0161 44.4891 24.6941 44.4869 25.5941C44.4826 27.3461 45.1225 28.2221 46.4065 28.2221C46.9945 28.2221 47.4389 28.0481 47.7397 27.7001C48.0526 27.3521 48.2098 26.8481 48.2114 26.1881L48.2141 25.1081ZM52.3505 23.5781C52.3535 22.3662 52.3314 21.5562 52.2844 21.1482H54.5164C54.5754 21.5922 54.6041 22.1142 54.6026 22.7141H54.6386C54.8079 22.1742 55.139 21.7482 55.6317 21.4362C56.1365 21.1242 56.7369 20.9682 57.4329 20.9682C58.0809 20.9682 58.6325 21.1062 59.0879 21.3822C59.5552 21.6462 59.8603 22.0062 60.0032 22.4622C60.2443 22.0062 60.6052 21.6462 61.0859 21.3822C61.5785 21.1062 62.1189 20.9682 62.7069 20.9682C63.7029 20.9682 64.4881 21.2922 65.0625 21.9402C65.637 22.5761 65.9228 23.4581 65.92 24.5861L65.9065 30.1481H63.3685L63.3813 24.8921C63.3827 24.3161 63.2578 23.8661 63.0066 23.5421C62.7554 23.2061 62.4138 23.0381 61.9818 23.0381C61.4898 23.0381 61.0994 23.2061 60.8106 23.5421C60.5338 23.8661 60.3947 24.3221 60.3932 24.9101L60.3805 30.1481H57.8605L57.8731 24.9641C57.8746 24.3641 57.7497 23.8961 57.4985 23.5601C57.2594 23.2121 56.9238 23.0381 56.4918 23.0381C55.9998 23.0381 55.6094 23.2121 55.3205 23.5601C55.0317 23.8961 54.8866 24.3641 54.8851 24.9641L54.8725 30.1481H52.3345L52.3505 23.5781ZM70.3638 30.3281C69.7758 30.3281 69.2481 30.2021 68.7808 29.9501C68.3134 29.6981 67.9482 29.3561 67.6853 28.9241C67.4223 28.4801 67.2916 27.9821 67.2929 27.4301C67.2952 26.5061 67.6689 25.7981 68.4141 25.3061C69.1593 24.8141 70.2279 24.5681 71.6199 24.5681H72.8799L72.8808 24.2081C72.8818 23.8001 72.7505 23.4821 72.4871 23.2541C72.2237 23.0261 71.8639 22.9121 71.4079 22.9121C70.8679 22.9121 70.3457 23.0021 69.8413 23.1821C69.3488 23.3621 68.9402 23.6081 68.6155 23.9201L67.521 22.4622C68.0382 22.0062 68.645 21.6462 69.3417 21.3822C70.0504 21.1062 70.7647 20.9682 71.4847 20.9682C72.7087 20.9682 73.674 21.2562 74.3806 21.8322C75.0872 22.3962 75.4393 23.1701 75.4369 24.1541L75.427 28.2041C75.4263 28.4921 75.4495 28.8341 75.4965 29.2301C75.5435 29.6261 75.5968 29.9321 75.6563 30.1481H73.3703C73.2987 29.9801 73.245 29.8301 73.2094 29.6981C73.1737 29.5661 73.1441 29.3801 73.1207 29.1401H73.0847C72.4108 29.9321 71.5038 30.3281 70.3638 30.3281ZM71.0524 28.4381C71.5804 28.4381 72.0128 28.3061 72.3494 28.0421C72.6981 27.7661 72.8729 27.4181 72.874 26.9981L72.8758 26.2421H71.5438C70.9798 26.2421 70.5476 26.3441 70.2471 26.5481C69.9466 26.7521 69.7958 27.0461 69.7949 27.4301C69.7941 27.7541 69.9015 28.0061 70.1171 28.1861C70.3326 28.3541 70.6444 28.4381 71.0524 28.4381Z" fill="#9FF233"/>
</svg>
