<svg width="98" height="45" viewBox="0 0 98 45" fill="none" xmlns="http://www.w3.org/2000/svg">
<rect x="0.994014" y="0.999982" width="94.8153" height="42.2584" rx="21.1292" transform="matrix(1 0 -0.00598608 0.999982 0.271123 1.79407e-05)" fill="#8633F2"/>
<rect x="0.994014" y="0.999982" width="94.8153" height="42.2584" rx="21.1292" transform="matrix(1 0 -0.00598608 0.999982 0.271123 1.79407e-05)" stroke="#9FF233" stroke-width="2"/>
<path d="M25.792 17.5289H28.69L28.66 22.5508H33.106L33.136 17.5289H36.034L35.9586 30.1287H33.0606L33.0922 24.8548H28.6462L28.6146 30.1287H25.7166L25.792 17.5289ZM41.1382 19.6349H37.4302L37.4428 17.5289H47.7568L47.7442 19.6349H44.0362L43.9734 30.1287H41.0754L41.1382 19.6349ZM61.6453 17.5289L61.5699 30.1287H58.7079L58.7478 23.4688L56.3499 30.1287L54.2979 30.1287L51.9798 23.4688L51.9399 30.1287H49.0779L49.1533 17.5289H52.1413L55.3426 27.0147L58.6573 17.5289H61.6453ZM63.9541 17.5289H66.8521L66.7905 27.8247H72.6765L72.6627 30.1287H63.8787L63.9541 17.5289Z" fill="#9FF233"/>
</svg>
