<svg width="108" height="45" viewBox="0 0 108 45" fill="none" xmlns="http://www.w3.org/2000/svg">
<rect x="0.994691" y="0.999986" width="104.771" height="42.2689" rx="21.1345" transform="matrix(1 0 -0.00530892 0.999986 1.10345 0.409163)" fill="#8633F2"/>
<rect x="0.994691" y="0.999986" width="104.771" height="42.2689" rx="21.1345" transform="matrix(1 0 -0.00530892 0.999986 1.10345 0.409163)" stroke="#9FF233" stroke-width="2"/>
<path d="M26.1382 17.9434H30.4942C32.0062 17.9434 33.1504 18.2914 33.9267 18.9874C34.7151 19.6713 35.1057 20.6853 35.0985 22.0293C35.091 23.4453 34.6833 24.5193 33.8754 25.2513C33.0795 25.9833 31.9076 26.3493 30.3596 26.3493H28.9916L28.9693 30.5432H26.0713L26.1382 17.9434ZM30.5697 24.0633C31.1217 24.0633 31.5426 23.8953 31.8324 23.5593C32.1222 23.2233 32.2688 22.7373 32.2722 22.1013C32.2754 21.4893 32.1219 21.0273 31.8115 20.7153C31.5132 20.4033 31.064 20.2473 30.464 20.2473H29.024L29.0037 24.0633H30.5697ZM44.7798 21.5433L41.2373 31.0472C40.8843 31.9952 40.3705 32.7152 39.6958 33.2072C39.0332 33.6991 38.2399 33.9451 37.3159 33.9451C36.8239 33.9451 36.2843 33.8671 35.6972 33.7111L35.708 31.6772C35.8517 31.7252 36.0435 31.7672 36.2833 31.8032C36.523 31.8512 36.7389 31.8752 36.9309 31.8752C37.4229 31.8752 37.8498 31.7072 38.2116 31.3712C38.5854 31.0352 38.9062 30.5132 39.1739 29.8052L35.8698 21.5433H38.5698L40.3952 26.9252L42.0798 21.5433H44.7798ZM49.907 30.7232C48.935 30.7232 48.1804 30.4712 47.643 29.9672C47.1177 29.4632 46.8575 28.7552 46.8623 27.8432L46.8857 23.4333H45.2477L45.2578 21.5433H46.8958L46.9079 19.2574L49.3957 18.5374H49.4677L49.4518 21.5433H52.0798L52.0697 23.4333H49.4417L49.4204 27.4472C49.4179 27.9272 49.536 28.2812 49.7748 28.5092C50.0136 28.7252 50.3851 28.8332 50.8891 28.8332C51.3691 28.8332 51.8135 28.7552 52.2223 28.5992L52.3211 30.3272C51.7197 30.5912 50.915 30.7232 49.907 30.7232ZM53.6436 17.1874H56.1996L56.1714 22.4973C56.4492 22.1493 56.8287 21.8733 57.3098 21.6693C57.8029 21.4653 58.3314 21.3633 58.8954 21.3633C59.5554 21.3633 60.1426 21.5133 60.657 21.8133C61.1715 22.1013 61.5712 22.5273 61.8562 23.0913C62.1413 23.6433 62.2818 24.2973 62.2778 25.0533L62.2487 30.5432H59.6927L59.7206 25.2873C59.7239 24.6633 59.5825 24.1713 59.2964 23.8113C59.0224 23.4393 58.6394 23.2533 58.1474 23.2533C57.5354 23.2533 57.0482 23.4693 56.6859 23.9013C56.3357 24.3213 56.1586 24.9033 56.1547 25.6473L56.1287 30.5432H53.5727L53.6436 17.1874ZM68.3193 30.7232C66.8313 30.7232 65.6695 30.3092 64.8339 29.4812C64.0103 28.6532 63.6024 27.5072 63.6102 26.0433C63.6179 24.5793 64.038 23.4333 64.8704 22.6053C65.7148 21.7773 66.881 21.3633 68.369 21.3633C69.857 21.3633 71.0128 21.7773 71.8364 22.6053C72.672 23.4333 73.086 24.5793 73.0782 26.0433C73.0704 27.5072 72.6443 28.6532 71.7999 29.4812C70.9675 30.3092 69.8073 30.7232 68.3193 30.7232ZM68.3294 28.8332C69.0134 28.8332 69.5487 28.5872 69.9353 28.0952C70.3219 27.6032 70.5175 26.9192 70.5222 26.0433C70.5268 25.1673 70.3385 24.4833 69.9571 23.9913C69.5757 23.4993 69.043 23.2533 68.359 23.2533C67.675 23.2533 67.1397 23.4993 66.7531 23.9913C66.3665 24.4833 66.1708 25.1673 66.1662 26.0433C66.1615 26.9192 66.3499 27.6032 66.7313 28.0952C67.1127 28.5872 67.6454 28.8332 68.3294 28.8332ZM74.4021 23.9553C74.4078 22.8873 74.3881 22.0833 74.3429 21.5433H76.7369C76.806 22.0953 76.8392 22.6173 76.8366 23.1093H76.8726C77.0794 22.5933 77.4536 22.1733 77.9953 21.8493C78.549 21.5253 79.1619 21.3633 79.8339 21.3633C80.8659 21.3633 81.644 21.7113 82.1684 22.4073C82.6927 23.1033 82.9512 24.1353 82.9439 25.5033L82.9172 30.5432H80.3612L80.388 25.4853C80.3918 24.7653 80.2806 24.2433 80.0543 23.9193C79.828 23.5953 79.4629 23.4333 78.9589 23.4333C78.3589 23.4333 77.8718 23.6373 77.4977 24.0453C77.1356 24.4413 76.9528 24.9693 76.9492 25.6293L76.9232 30.5432H74.3672L74.4021 23.9553Z" fill="#9FF233"/>
</svg>
