<svg width="81" height="45" viewBox="0 0 81 45" fill="none" xmlns="http://www.w3.org/2000/svg">
<rect x="1" y="1" width="78.7626" height="42.3032" rx="21.1516" fill="#8633F2"/>
<rect x="1" y="1" width="78.7626" height="42.3032" rx="21.1516" stroke="#9FF233" stroke-width="2"/>
<path d="M28.9791 30.3316C27.9951 30.3316 27.1071 30.1336 26.3151 29.7376C25.5351 29.3416 24.8991 28.7656 24.4071 28.0096L26.0811 26.4256C26.4771 26.8936 26.9511 27.2776 27.5031 27.5776C28.0671 27.8776 28.5891 28.0276 29.0691 28.0276C29.5731 28.0276 29.9751 27.9196 30.2751 27.7036C30.5751 27.4876 30.7251 27.2056 30.7251 26.8576C30.7251 26.5816 30.6771 26.3656 30.5811 26.2096C30.4971 26.0536 30.3111 25.8916 30.0231 25.7236C29.7471 25.5436 29.2671 25.2796 28.5831 24.9316C27.6711 24.4756 26.9571 24.0556 26.4411 23.6716C25.9251 23.2876 25.5351 22.8676 25.2711 22.4116C25.0191 21.9436 24.8931 21.3916 24.8931 20.7556C24.8931 20.0956 25.0731 19.5076 25.4331 18.9916C25.7931 18.4756 26.2971 18.0796 26.9451 17.8036C27.6051 17.5156 28.3611 17.3716 29.2131 17.3716C30.1611 17.3716 30.9891 17.5456 31.6971 17.8936C32.4171 18.2416 32.9451 18.7276 33.2811 19.3516L31.4631 20.7196C30.8751 20.0236 30.1731 19.6756 29.3571 19.6756C28.8531 19.6756 28.4631 19.7716 28.1871 19.9636C27.9231 20.1436 27.7911 20.4016 27.7911 20.7376C27.7911 20.9536 27.8691 21.1516 28.0251 21.3316C28.1811 21.5116 28.4511 21.7156 28.8351 21.9436C29.2311 22.1596 29.8191 22.4476 30.5991 22.8076C31.3551 23.1556 31.9491 23.5096 32.3811 23.8696C32.8131 24.2176 33.1191 24.6196 33.2991 25.0756C33.4911 25.5196 33.5871 26.0596 33.5871 26.6956C33.5871 27.4276 33.3951 28.0696 33.0111 28.6216C32.6391 29.1616 32.1051 29.5816 31.4091 29.8816C30.7131 30.1816 29.9031 30.3316 28.9791 30.3316ZM46.0722 23.8516C46.0722 25.5316 45.7182 26.9116 45.0102 27.9916C44.3142 29.0716 43.3242 29.7796 42.0402 30.1156C43.0842 30.4636 44.3922 30.6376 45.9642 30.6376L45.5142 32.5996C44.6862 32.5756 43.8162 32.4376 42.9042 32.1856C41.9922 31.9456 41.1402 31.6396 40.3482 31.2676C39.5682 30.8956 38.9562 30.5056 38.5122 30.0976C37.2522 29.7496 36.2742 29.0416 35.5782 27.9736C34.8942 26.8936 34.5522 25.5196 34.5522 23.8516C34.5522 22.5076 34.7802 21.3496 35.2362 20.3776C35.6922 19.4056 36.3522 18.6616 37.2162 18.1456C38.0802 17.6296 39.1122 17.3716 40.3122 17.3716C41.5122 17.3716 42.5442 17.6296 43.4082 18.1456C44.2722 18.6616 44.9322 19.4056 45.3882 20.3776C45.8442 21.3496 46.0722 22.5076 46.0722 23.8516ZM40.3122 19.6576C39.4242 19.6576 38.7222 20.0296 38.2062 20.7736C37.7022 21.5176 37.4502 22.5436 37.4502 23.8516C37.4502 25.1596 37.7022 26.1856 38.2062 26.9296C38.7222 27.6736 39.4242 28.0456 40.3122 28.0456C41.2002 28.0456 41.8962 27.6736 42.4002 26.9296C42.9162 26.1856 43.1742 25.1596 43.1742 23.8516C43.1742 22.5436 42.9162 21.5176 42.4002 20.7736C41.8962 20.0296 41.2002 19.6576 40.3122 19.6576ZM47.7677 17.5516H50.6657V27.8476H56.5517V30.1516H47.7677V17.5516Z" fill="#9FF233"/>
</svg>
