<svg width="49" height="49" viewBox="0 0 49 49" fill="none" xmlns="http://www.w3.org/2000/svg">
<path d="M27.5938 15.9639L27.749 16.6553L28.3486 16.2773L40.2188 8.78027L32.7227 20.6514L32.3447 21.251L33.0361 21.4062L46.7314 24.5L33.0361 27.5938L32.3447 27.749L32.7227 28.3486L40.2188 40.2188L28.3486 32.7227L27.749 32.3447L27.5938 33.0361L24.5 46.7314L21.4062 33.0361L21.251 32.3447L20.6514 32.7227L8.78027 40.2188L16.2773 28.3486L16.6553 27.749L15.9639 27.5938L2.26758 24.5L15.9639 21.4062L16.6553 21.251L16.2773 20.6514L8.78027 8.78027L20.6514 16.2773L21.251 16.6553L21.4062 15.9639L24.5 2.26758L27.5938 15.9639Z" fill="#9FF233" stroke="#9FF233"/>
</svg>
