<svg width="136" height="136" viewBox="0 0 136 136" fill="none" xmlns="http://www.w3.org/2000/svg">
<path d="M77.4521 44.1133L77.6084 44.8047L78.207 44.4258L114.477 21.5225L91.5742 57.793L91.1953 58.3916L91.8867 58.5479L133.731 68L91.8867 77.4521L91.1953 77.6084L91.5742 78.207L114.477 114.477L78.207 91.5742L77.6084 91.1953L77.4521 91.8867L68 133.731L58.5479 91.8867L58.3916 91.1953L57.793 91.5742L21.5225 114.477L44.4258 78.207L44.8047 77.6084L44.1133 77.4521L2.26758 68L44.1133 58.5479L44.8047 58.3916L44.4258 57.793L21.5225 21.5225L57.793 44.4258L58.3916 44.8047L58.5479 44.1133L68 2.26758L77.4521 44.1133Z" fill="#9FF233" stroke="#9FF233"/>
</svg>
